<?xml version="1.0" encoding="UTF-8" standalone="no"?>
<!-- Created with Inkscape (http://www.inkscape.org/) -->

<svg
   xmlns:dc="http://purl.org/dc/elements/1.1/"
   xmlns:cc="http://creativecommons.org/ns#"
   xmlns:rdf="http://www.w3.org/1999/02/22-rdf-syntax-ns#"
   xmlns:svg="http://www.w3.org/2000/svg"
   xmlns="http://www.w3.org/2000/svg"
   xmlns:sodipodi="http://sodipodi.sourceforge.net/DTD/sodipodi-0.dtd"
   xmlns:inkscape="http://www.inkscape.org/namespaces/inkscape"
   width="277.07251mm"
   height="277.07251mm"
   viewBox="0 0 277.07251 277.07251"
   version="1.1"
   id="svg26448"
   inkscape:version="0.92.3 (2405546, 2018-03-11)"
   sodipodi:docname="Vietnam_road_sign_P103a.svg">
  <defs
     id="defs26442">
    <clipPath
       id="clipPath2832">
      <path
         inkscape:connector-curvature="0"
         id="path2834"
         d="M -0.24,595.138 H 317.24 V -0.138 H -0.24 Z" />
    </clipPath>
    <clipPath
       id="clipPath2840">
      <path
         inkscape:connector-curvature="0"
         id="path2842"
         d="M 0.03,595.32 H 317.49 V 0 H 0.03 Z" />
    </clipPath>
    <clipPath
       id="clipPath2858">
      <path
         inkscape:connector-curvature="0"
         id="path2860"
         d="M -0.24,595.138 H 317.24 V -0.138 H -0.24 Z" />
    </clipPath>
    <clipPath
       id="clipPath2864">
      <path
         inkscape:connector-curvature="0"
         id="path2866"
         d="M 0.03,595.32 H 317.49 V 0 H 0.03 Z" />
    </clipPath>
    <clipPath
       id="clipPath3306">
      <path
         inkscape:connector-curvature="0"
         id="path3308"
         d="m 199.238,472.977 v -29.74 h 29.744 v 29.74" />
    </clipPath>
    <clipPath
       id="clipPath3322">
      <path
         inkscape:connector-curvature="0"
         id="path3324"
         d="M -0.24,595.138 H 317.24 V -0.138 H -0.24 Z" />
    </clipPath>
    <clipPath
       id="clipPath3330">
      <path
         inkscape:connector-curvature="0"
         id="path3332"
         d="M 0.03,595.32 H 317.49 V 0 H 0.03 Z" />
    </clipPath>
    <clipPath
       id="clipPath3344">
      <path
         inkscape:connector-curvature="0"
         id="path3346"
         d="m 88.233,387.221 v -28.335 h 32.08 v 28.335" />
    </clipPath>
    <clipPath
       id="clipPath3462">
      <path
         inkscape:connector-curvature="0"
         id="path3464"
         d="M -0.24,595.138 H 317.24 V -0.138 H -0.24 Z" />
    </clipPath>
    <clipPath
       id="clipPath3470">
      <path
         inkscape:connector-curvature="0"
         id="path3472"
         d="M 0.03,595.32 H 317.49 V 0 H 0.03 Z" />
    </clipPath>
    <clipPath
       id="clipPath3490">
      <path
         inkscape:connector-curvature="0"
         id="path3492"
         d="M -0.24,595.138 H 317.24 V -0.138 H -0.24 Z" />
    </clipPath>
    <clipPath
       id="clipPath3496">
      <path
         inkscape:connector-curvature="0"
         id="path3498"
         d="M 0.03,595.32 H 317.49 V 0 H 0.03 Z" />
    </clipPath>
    <clipPath
       id="clipPath3520">
      <path
         inkscape:connector-curvature="0"
         id="path3522"
         d="m 254.788,326.215 v -28.309 h 28.326 v 28.309" />
    </clipPath>
    <clipPath
       id="clipPath3544">
      <path
         inkscape:connector-curvature="0"
         id="path3546"
         d="m 145.049,326.142 v -28.333 h 28.342 v 28.333" />
    </clipPath>
    <clipPath
       id="clipPath3682">
      <path
         inkscape:connector-curvature="0"
         id="path3684"
         d="M -0.24,595.138 H 317.24 V -0.138 H -0.24 Z" />
    </clipPath>
    <clipPath
       id="clipPath3690">
      <path
         inkscape:connector-curvature="0"
         id="path3692"
         d="M 0.03,595.32 H 317.49 V 0 H 0.03 Z" />
    </clipPath>
    <clipPath
       id="clipPath3980">
      <path
         inkscape:connector-curvature="0"
         id="path3982"
         d="M -0.24,595.138 H 317.24 V -0.138 H -0.24 Z" />
    </clipPath>
    <clipPath
       id="clipPath3988">
      <path
         inkscape:connector-curvature="0"
         id="path3990"
         d="M 0.03,595.32 H 317.49 V 0 H 0.03 Z" />
    </clipPath>
    <clipPath
       id="clipPath4010">
      <path
         inkscape:connector-curvature="0"
         id="path4012"
         d="M -0.24,595.138 H 317.24 V -0.138 H -0.24 Z" />
    </clipPath>
    <clipPath
       id="clipPath4016">
      <path
         inkscape:connector-curvature="0"
         id="path4018"
         d="M 0.03,595.32 H 317.49 V 0 H 0.03 Z" />
    </clipPath>
    <clipPath
       id="clipPath4062">
      <path
         inkscape:connector-curvature="0"
         id="path4064"
         d="m 200.163,177.773 v -28.284 h 28.283 v 28.284" />
    </clipPath>
    <clipPath
       id="clipPath4090">
      <path
         inkscape:connector-curvature="0"
         id="path4092"
         d="m 34.886,177.515 v -51.632 h 30.367 v 51.632" />
    </clipPath>
    <clipPath
       id="clipPath4106">
      <path
         inkscape:connector-curvature="0"
         id="path4108"
         d="m 34.886,177.515 v -51.632 h 30.367 v 51.632" />
    </clipPath>
    <clipPath
       id="clipPath4272">
      <path
         inkscape:connector-curvature="0"
         id="path4274"
         d="m 34.886,177.515 v -51.632 h 30.367 v 51.632" />
    </clipPath>
    <clipPath
       id="clipPath4304">
      <path
         inkscape:connector-curvature="0"
         id="path4306"
         d="m 254.653,176.442 v -48.167 h 28.317 v 48.167" />
    </clipPath>
    <clipPath
       id="clipPath4310">
      <path
         inkscape:connector-curvature="0"
         id="path4312"
         d="m 253.565,177.983 h 31.181 V 128.8 h -31.181 z" />
    </clipPath>
    <clipPath
       id="clipPath4316">
      <path
         inkscape:connector-curvature="0"
         id="path4318"
         d="M -0.24,595.138 H 317.24 V -0.138 H -0.24 Z" />
    </clipPath>
    <clipPath
       id="clipPath4322">
      <path
         inkscape:connector-curvature="0"
         id="path4324"
         d="M 0.03,595.32 H 317.49 V 0 H 0.03 Z" />
    </clipPath>
    <clipPath
       id="clipPath4456">
      <path
         inkscape:connector-curvature="0"
         id="path4458"
         d="M -0.24,595.138 H 317.24 V -0.138 H -0.24 Z" />
    </clipPath>
    <clipPath
       id="clipPath4464">
      <path
         inkscape:connector-curvature="0"
         id="path4466"
         d="M 0.03,595.32 H 317.49 V 0 H 0.03 Z" />
    </clipPath>
  </defs>
  <sodipodi:namedview
     id="base"
     pagecolor="#ffffff"
     bordercolor="#666666"
     borderopacity="1.0"
     inkscape:pageopacity="0.0"
     inkscape:pageshadow="2"
     inkscape:zoom="0.24748737"
     inkscape:cx="404.60986"
     inkscape:cy="687.3009"
     inkscape:document-units="mm"
     inkscape:current-layer="layer1"
     showgrid="false"
     inkscape:window-width="1600"
     inkscape:window-height="838"
     inkscape:window-x="-8"
     inkscape:window-y="-8"
     inkscape:window-maximized="1" />
  <metadata
     id="metadata26445">
    <rdf:RDF>
      <cc:Work
         rdf:about="">
        <dc:format>image/svg+xml</dc:format>
        <dc:type
           rdf:resource="http://purl.org/dc/dcmitype/StillImage" />
        <dc:title></dc:title>
      </cc:Work>
    </rdf:RDF>
  </metadata>
  <g
     inkscape:label="Layer 1"
     inkscape:groupmode="layer"
     id="layer1"
     transform="translate(78.19331,3.6614075)">
    <circle
       style="fill:#f90200;fill-opacity:1;stroke:none;stroke-width:0.92209375;stroke-linecap:round;stroke-linejoin:round;stroke-miterlimit:4;stroke-dasharray:none;stroke-opacity:1"
       id="circle6"
       r="138.53625"
       cy="134.87485"
       cx="60.342945" />
    <circle
       style="fill:#ffffff;fill-opacity:1;stroke:none;stroke-width:0.66091502;stroke-linecap:round;stroke-linejoin:round;stroke-miterlimit:4;stroke-dasharray:none;stroke-opacity:1"
       id="circle6-9"
       r="99.296516"
       cy="135.29677"
       cx="61.608727" />
    <path
       id="rect5690"
       style="fill:#f90200;fill-opacity:1;stroke-width:0.25498354"
       d="M -2.8987561,55.154658 -19.403334,68.444868 125.43677,213.73901 140.05764,200.73836 Z"
       inkscape:connector-curvature="0"
       sodipodi:nodetypes="ccccc" />
    <path
       inkscape:connector-curvature="0"
       d="m 30.086577,81.325932 c -3.833154,0.01342 -13.119971,2.00962 -14.916444,13.576695 L 9.2143746,129.52221 c 0,0 -8.0181245,0.44999 -8.0452005,8.935 v 17.64724 c 0,0 1.2227054,4.63156 5.8711737,7.32796 v 19.29428 c 0,0 2.8960095,4.13085 9.1109112,4.11394 6.17092,0.0168 8.57636,-4.19853 8.57636,-4.19853 v -17.68725 c 0,0 24.771629,1.29238 35.374502,1.33297 10.6841,-0.0405 35.469166,-1.33297 35.469166,-1.33297 v 17.68725 c 0,0 2.408805,4.21544 8.586473,4.19853 6.2047,0.0168 10.69212,-4.11394 10.69212,-4.11394 v -19.29428 c 4.63834,-2.6964 5.08472,-4.32328 5.08472,-4.32328 v -23.17001 c 0.10362,-6.3717 -8.05105,-7.20588 -8.05105,-7.20588 l -5.1634,-33.830613 C 104.91017,83.335552 99.561453,81.33947 95.735097,81.325932 Z m 20.552808,8.755676 H 69.66976 c 1.573172,-0.03727 18.120262,1.123215 19.030326,1.245011 4.98001,0.53114 10.69756,3.552332 12.064334,10.541961 l 2.44047,16.96732 c 0,0 0.91756,5.25348 -6.657329,5.25686 -6.032157,-0.004 -28.127658,-2.07796 -35.648462,-2.03737 -7.442977,-0.0405 -29.528373,2.03399 -35.553805,2.03737 -7.585095,-0.004 -7.142325,-5.8546 -7.142325,-5.8546 l 2.141973,-15.37336 c 1.356654,-6.989635 6.27387,-11.007041 11.264054,-11.538181 0.903313,-0.121811 17.447065,-1.282225 19.030389,-1.245011 z M 16.610669,134.53879 c 4.580825,-0.0168 8.258353,3.67075 8.214369,8.2245 0.04398,4.52669 -3.633544,8.20422 -8.214369,8.21437 -4.499613,-0.0104 -8.1771241,-3.68768 -8.2143538,-8.21437 0.03727,-4.55375 3.7147408,-8.24141 8.2143538,-8.2245 z m 88.570831,0 c 4.5808,-0.0168 8.25831,3.67075 8.21431,8.2245 0.044,4.52669 -3.63351,8.20422 -8.21431,8.21437 -4.49958,-0.0104 -8.187222,-3.68768 -8.224442,-8.21437 0.0373,-4.55375 3.724862,-8.24141 8.224442,-8.2245 z m -45.079379,0.74896 c 3.200495,0.034 25.8779,0.35861 29.403169,0.8052 v 4.01584 H 30.807187 v -4.01584 c 3.511748,-0.44659 26.175652,-0.77138 29.294934,-0.8052 z m -29.389654,9.01957 H 89.58985 v 4.73643 H 30.712467 Z m 0.09483,9.11426 H 89.50539 v 4.026 c -3.525259,0.46011 -26.202665,1.57047 -29.40316,1.59415 -3.119297,-0.0237 -25.783201,-1.13404 -29.294933,-1.59415 z"
       id="path12"
       style="fill:#000000;fill-opacity:1;fill-rule:nonzero;stroke-width:0.33831784"
       sodipodi:nodetypes="ccccccccccccccccccccccccccccccccccccccccccccccccccccccccccccc" />
  </g>
</svg>
