<?xml version="1.0" encoding="UTF-8" standalone="no"?>
<!-- Created with Inkscape (http://www.inkscape.org/) -->

<svg
   width="2520mm"
   height="1417.5mm"
   viewBox="0 0 2519.9999 1417.5"
   version="1.1"
   id="svg8"
   inkscape:version="1.4 (86a8ad7, 2024-10-11)"
   sodipodi:docname="Vietnam_road_sign_R415a.svg"
   xmlns:inkscape="http://www.inkscape.org/namespaces/inkscape"
   xmlns:sodipodi="http://sodipodi.sourceforge.net/DTD/sodipodi-0.dtd"
   xmlns="http://www.w3.org/2000/svg"
   xmlns:svg="http://www.w3.org/2000/svg"
   xmlns:rdf="http://www.w3.org/1999/02/22-rdf-syntax-ns#"
   xmlns:cc="http://creativecommons.org/ns#"
   xmlns:dc="http://purl.org/dc/elements/1.1/">
  <defs
     id="defs2" />
  <sodipodi:namedview
     id="base"
     pagecolor="#ffffff"
     bordercolor="#666666"
     borderopacity="1.0"
     inkscape:pageopacity="0.0"
     inkscape:pageshadow="2"
     inkscape:zoom="0.093"
     inkscape:cx="4956.9892"
     inkscape:cy="2779.5699"
     inkscape:document-units="mm"
     inkscape:current-layer="layer1"
     showgrid="false"
     inkscape:window-width="1920"
     inkscape:window-height="991"
     inkscape:window-x="-9"
     inkscape:window-y="-9"
     inkscape:window-maximized="1"
     inkscape:measure-start="0,0"
     inkscape:measure-end="0,0"
     fit-margin-top="0"
     fit-margin-left="0"
     fit-margin-right="0"
     fit-margin-bottom="0"
     showguides="false"
     inkscape:snap-global="false"
     inkscape:showpageshadow="2"
     inkscape:pagecheckerboard="0"
     inkscape:deskcolor="#d1d1d1" />
  <metadata
     id="metadata5">
    <rdf:RDF>
      <cc:Work
         rdf:about="">
        <dc:format>image/svg+xml</dc:format>
        <dc:type
           rdf:resource="http://purl.org/dc/dcmitype/StillImage" />
      </cc:Work>
    </rdf:RDF>
  </metadata>
  <g
     inkscape:label="Layer 1"
     inkscape:groupmode="layer"
     id="layer1"
     transform="matrix(1,0,0,0.6328125,-1785.5645,4022.6794)">
    <rect
       style="opacity:1;fill:#0046aa;fill-opacity:1;fill-rule:nonzero;stroke:none;stroke-width:0.135289;stroke-linecap:round;stroke-linejoin:miter;stroke-miterlimit:10;stroke-dasharray:none;stroke-opacity:1;paint-order:stroke fill markers"
       id="rect826"
       width="2520"
       height="2240"
       x="1785.5645"
       y="-6356.8267" />
    <rect
       y="-6349.8267"
       x="1792.5645"
       height="2226"
       width="2506"
       id="rect895"
       style="opacity:1;fill:#ffffff;fill-opacity:1;fill-rule:nonzero;stroke:none;stroke-width:0.13449;stroke-linecap:round;stroke-linejoin:miter;stroke-miterlimit:10;stroke-dasharray:none;stroke-opacity:1;paint-order:stroke fill markers" />
    <rect
       style="opacity:1;fill:#0046aa;fill-opacity:1;fill-rule:nonzero;stroke:none;stroke-width:0.132893;stroke-linecap:round;stroke-linejoin:miter;stroke-miterlimit:10;stroke-dasharray:none;stroke-opacity:1;paint-order:stroke fill markers"
       id="rect897"
       width="2478"
       height="2198"
       x="1806.5645"
       y="-6335.8267" />
    <rect
       style="opacity:1;fill:#ffffff;fill-opacity:1;fill-rule:nonzero;stroke:none;stroke-width:0.029611;stroke-linecap:round;stroke-linejoin:miter;stroke-miterlimit:10;stroke-dasharray:none;stroke-opacity:1;paint-order:stroke fill markers"
       id="rect114161"
       width="42"
       height="76.999992"
       x="2604.5645"
       y="-4243.7021" />
    <rect
       y="-4341.9521"
       x="2604.5645"
       height="76.999992"
       width="42"
       id="rect114163"
       style="opacity:1;fill:#ffffff;fill-opacity:1;fill-rule:nonzero;stroke:none;stroke-width:0.029611;stroke-linecap:round;stroke-linejoin:miter;stroke-miterlimit:10;stroke-dasharray:none;stroke-opacity:1;paint-order:stroke fill markers" />
    <rect
       y="-4440.2021"
       x="2604.5645"
       height="76.999992"
       width="42"
       id="rect114165"
       style="opacity:1;fill:#ffffff;fill-opacity:1;fill-rule:nonzero;stroke:none;stroke-width:0.029611;stroke-linecap:round;stroke-linejoin:miter;stroke-miterlimit:10;stroke-dasharray:none;stroke-opacity:1;paint-order:stroke fill markers" />
    <rect
       style="opacity:1;fill:#ffffff;fill-opacity:1;fill-rule:nonzero;stroke:none;stroke-width:0.029611;stroke-linecap:round;stroke-linejoin:miter;stroke-miterlimit:10;stroke-dasharray:none;stroke-opacity:1;paint-order:stroke fill markers"
       id="rect114167"
       width="42"
       height="76.999992"
       x="2604.5645"
       y="-4538.4521" />
    <rect
       y="-4636.7021"
       x="2604.5645"
       height="76.999992"
       width="42"
       id="rect114169"
       style="opacity:1;fill:#ffffff;fill-opacity:1;fill-rule:nonzero;stroke:none;stroke-width:0.029611;stroke-linecap:round;stroke-linejoin:miter;stroke-miterlimit:10;stroke-dasharray:none;stroke-opacity:1;paint-order:stroke fill markers" />
    <rect
       style="opacity:1;fill:#ffffff;fill-opacity:1;fill-rule:nonzero;stroke:none;stroke-width:0.029611;stroke-linecap:round;stroke-linejoin:miter;stroke-miterlimit:10;stroke-dasharray:none;stroke-opacity:1;paint-order:stroke fill markers"
       id="rect114171"
       width="42"
       height="76.999992"
       x="2604.5645"
       y="-4734.9521" />
    <rect
       style="opacity:1;fill:#ffffff;fill-opacity:1;fill-rule:nonzero;stroke:none;stroke-width:0.029611;stroke-linecap:round;stroke-linejoin:miter;stroke-miterlimit:10;stroke-dasharray:none;stroke-opacity:1;paint-order:stroke fill markers"
       id="rect114173"
       width="42"
       height="76.999992"
       x="2604.5645"
       y="-4833.2021" />
    <rect
       y="-4931.4521"
       x="2604.5645"
       height="76.999992"
       width="42"
       id="rect114175"
       style="opacity:1;fill:#ffffff;fill-opacity:1;fill-rule:nonzero;stroke:none;stroke-width:0.029611;stroke-linecap:round;stroke-linejoin:miter;stroke-miterlimit:10;stroke-dasharray:none;stroke-opacity:1;paint-order:stroke fill markers" />
    <rect
       y="-5029.7021"
       x="2604.5645"
       height="76.999992"
       width="42"
       id="rect114177"
       style="opacity:1;fill:#ffffff;fill-opacity:1;fill-rule:nonzero;stroke:none;stroke-width:0.029611;stroke-linecap:round;stroke-linejoin:miter;stroke-miterlimit:10;stroke-dasharray:none;stroke-opacity:1;paint-order:stroke fill markers" />
    <rect
       style="opacity:1;fill:#ffffff;fill-opacity:1;fill-rule:nonzero;stroke:none;stroke-width:0.029611;stroke-linecap:round;stroke-linejoin:miter;stroke-miterlimit:10;stroke-dasharray:none;stroke-opacity:1;paint-order:stroke fill markers"
       id="rect114179"
       width="42"
       height="76.999992"
       x="2604.5645"
       y="-5127.9521" />
    <rect
       style="opacity:1;fill:#ffffff;fill-opacity:1;fill-rule:nonzero;stroke:none;stroke-width:0.029611;stroke-linecap:round;stroke-linejoin:miter;stroke-miterlimit:10;stroke-dasharray:none;stroke-opacity:1;paint-order:stroke fill markers"
       id="rect114181"
       width="42"
       height="76.999992"
       x="2604.5645"
       y="-5226.2021" />
    <rect
       y="-5324.4521"
       x="2604.5645"
       height="76.999992"
       width="42"
       id="rect114183"
       style="opacity:1;fill:#ffffff;fill-opacity:1;fill-rule:nonzero;stroke:none;stroke-width:0.029611;stroke-linecap:round;stroke-linejoin:miter;stroke-miterlimit:10;stroke-dasharray:none;stroke-opacity:1;paint-order:stroke fill markers" />
    <rect
       style="opacity:1;fill:#ffffff;fill-opacity:1;fill-rule:nonzero;stroke:none;stroke-width:0.029611;stroke-linecap:round;stroke-linejoin:miter;stroke-miterlimit:10;stroke-dasharray:none;stroke-opacity:1;paint-order:stroke fill markers"
       id="rect114185"
       width="42"
       height="76.999992"
       x="2604.5645"
       y="-5422.7021" />
    <rect
       y="-5520.9521"
       x="2604.5645"
       height="76.999992"
       width="42"
       id="rect114187"
       style="opacity:1;fill:#ffffff;fill-opacity:1;fill-rule:nonzero;stroke:none;stroke-width:0.029611;stroke-linecap:round;stroke-linejoin:miter;stroke-miterlimit:10;stroke-dasharray:none;stroke-opacity:1;paint-order:stroke fill markers" />
    <rect
       y="-5619.2021"
       x="2604.5645"
       height="76.999992"
       width="42"
       id="rect114189"
       style="opacity:1;fill:#ffffff;fill-opacity:1;fill-rule:nonzero;stroke:none;stroke-width:0.029611;stroke-linecap:round;stroke-linejoin:miter;stroke-miterlimit:10;stroke-dasharray:none;stroke-opacity:1;paint-order:stroke fill markers" />
    <rect
       style="opacity:1;fill:#ffffff;fill-opacity:1;fill-rule:nonzero;stroke:none;stroke-width:0.029611;stroke-linecap:round;stroke-linejoin:miter;stroke-miterlimit:10;stroke-dasharray:none;stroke-opacity:1;paint-order:stroke fill markers"
       id="rect114191"
       width="42"
       height="76.999992"
       x="2604.5645"
       y="-5717.4521" />
    <rect
       y="-5815.7021"
       x="2604.5645"
       height="76.999992"
       width="42"
       id="rect114193"
       style="opacity:1;fill:#ffffff;fill-opacity:1;fill-rule:nonzero;stroke:none;stroke-width:0.029611;stroke-linecap:round;stroke-linejoin:miter;stroke-miterlimit:10;stroke-dasharray:none;stroke-opacity:1;paint-order:stroke fill markers" />
    <rect
       style="opacity:1;fill:#ffffff;fill-opacity:1;fill-rule:nonzero;stroke:none;stroke-width:0.029611;stroke-linecap:round;stroke-linejoin:miter;stroke-miterlimit:10;stroke-dasharray:none;stroke-opacity:1;paint-order:stroke fill markers"
       id="rect114195"
       width="42"
       height="76.999992"
       x="2604.5645"
       y="-5913.9521" />
    <rect
       style="opacity:1;fill:#ffffff;fill-opacity:1;fill-rule:nonzero;stroke:none;stroke-width:0.029611;stroke-linecap:round;stroke-linejoin:miter;stroke-miterlimit:10;stroke-dasharray:none;stroke-opacity:1;paint-order:stroke fill markers"
       id="rect114197"
       width="42"
       height="76.999992"
       x="2604.5645"
       y="-6012.2021" />
    <rect
       y="-6110.4521"
       x="2604.5645"
       height="76.999992"
       width="42"
       id="rect114199"
       style="opacity:1;fill:#ffffff;fill-opacity:1;fill-rule:nonzero;stroke:none;stroke-width:0.029611;stroke-linecap:round;stroke-linejoin:miter;stroke-miterlimit:10;stroke-dasharray:none;stroke-opacity:1;paint-order:stroke fill markers" />
    <rect
       style="opacity:1;fill:#ffffff;fill-opacity:1;fill-rule:nonzero;stroke:none;stroke-width:0.029611;stroke-linecap:round;stroke-linejoin:miter;stroke-miterlimit:10;stroke-dasharray:none;stroke-opacity:1;paint-order:stroke fill markers"
       id="rect114201"
       width="42"
       height="76.999992"
       x="2604.5645"
       y="-6208.7021" />
    <rect
       y="-6306.9517"
       x="2604.5645"
       height="76.999992"
       width="42"
       id="rect114490"
       style="opacity:1;fill:#ffffff;fill-opacity:1;fill-rule:nonzero;stroke:none;stroke-width:0.029611;stroke-linecap:round;stroke-linejoin:miter;stroke-miterlimit:10;stroke-dasharray:none;stroke-opacity:1;paint-order:stroke fill markers" />
    <rect
       style="opacity:1;fill:#ffffff;fill-opacity:1;fill-rule:nonzero;stroke:none;stroke-width:0.0134979;stroke-linecap:round;stroke-linejoin:miter;stroke-miterlimit:10;stroke-dasharray:none;stroke-opacity:1;paint-order:stroke fill markers"
       id="rect114503"
       width="42"
       height="16"
       x="2604.5645"
       y="-6344.2017" />
    <rect
       y="-4145.4517"
       x="2604.5645"
       height="16"
       width="42"
       id="rect114516"
       style="opacity:1;fill:#ffffff;fill-opacity:1;fill-rule:nonzero;stroke:none;stroke-width:0.0134979;stroke-linecap:round;stroke-linejoin:miter;stroke-miterlimit:10;stroke-dasharray:none;stroke-opacity:1;paint-order:stroke fill markers" />
    <rect
       y="-4243.7021"
       x="3444.5645"
       height="76.999992"
       width="42"
       id="rect114558"
       style="opacity:1;fill:#ffffff;fill-opacity:1;fill-rule:nonzero;stroke:none;stroke-width:0.029611;stroke-linecap:round;stroke-linejoin:miter;stroke-miterlimit:10;stroke-dasharray:none;stroke-opacity:1;paint-order:stroke fill markers" />
    <rect
       style="opacity:1;fill:#ffffff;fill-opacity:1;fill-rule:nonzero;stroke:none;stroke-width:0.029611;stroke-linecap:round;stroke-linejoin:miter;stroke-miterlimit:10;stroke-dasharray:none;stroke-opacity:1;paint-order:stroke fill markers"
       id="rect114560"
       width="42"
       height="76.999992"
       x="3444.5645"
       y="-4341.9521" />
    <rect
       style="opacity:1;fill:#ffffff;fill-opacity:1;fill-rule:nonzero;stroke:none;stroke-width:0.029611;stroke-linecap:round;stroke-linejoin:miter;stroke-miterlimit:10;stroke-dasharray:none;stroke-opacity:1;paint-order:stroke fill markers"
       id="rect114562"
       width="42"
       height="76.999992"
       x="3444.5645"
       y="-4440.2021" />
    <rect
       y="-4538.4521"
       x="3444.5645"
       height="76.999992"
       width="42"
       id="rect114564"
       style="opacity:1;fill:#ffffff;fill-opacity:1;fill-rule:nonzero;stroke:none;stroke-width:0.029611;stroke-linecap:round;stroke-linejoin:miter;stroke-miterlimit:10;stroke-dasharray:none;stroke-opacity:1;paint-order:stroke fill markers" />
    <rect
       style="opacity:1;fill:#ffffff;fill-opacity:1;fill-rule:nonzero;stroke:none;stroke-width:0.029611;stroke-linecap:round;stroke-linejoin:miter;stroke-miterlimit:10;stroke-dasharray:none;stroke-opacity:1;paint-order:stroke fill markers"
       id="rect114566"
       width="42"
       height="76.999992"
       x="3444.5645"
       y="-4636.7021" />
    <rect
       y="-4734.9521"
       x="3444.5645"
       height="76.999992"
       width="42"
       id="rect114568"
       style="opacity:1;fill:#ffffff;fill-opacity:1;fill-rule:nonzero;stroke:none;stroke-width:0.029611;stroke-linecap:round;stroke-linejoin:miter;stroke-miterlimit:10;stroke-dasharray:none;stroke-opacity:1;paint-order:stroke fill markers" />
    <rect
       y="-4833.2021"
       x="3444.5645"
       height="76.999992"
       width="42"
       id="rect114570"
       style="opacity:1;fill:#ffffff;fill-opacity:1;fill-rule:nonzero;stroke:none;stroke-width:0.029611;stroke-linecap:round;stroke-linejoin:miter;stroke-miterlimit:10;stroke-dasharray:none;stroke-opacity:1;paint-order:stroke fill markers" />
    <rect
       style="opacity:1;fill:#ffffff;fill-opacity:1;fill-rule:nonzero;stroke:none;stroke-width:0.029611;stroke-linecap:round;stroke-linejoin:miter;stroke-miterlimit:10;stroke-dasharray:none;stroke-opacity:1;paint-order:stroke fill markers"
       id="rect114572"
       width="42"
       height="76.999992"
       x="3444.5645"
       y="-4931.4521" />
    <rect
       style="opacity:1;fill:#ffffff;fill-opacity:1;fill-rule:nonzero;stroke:none;stroke-width:0.029611;stroke-linecap:round;stroke-linejoin:miter;stroke-miterlimit:10;stroke-dasharray:none;stroke-opacity:1;paint-order:stroke fill markers"
       id="rect114574"
       width="42"
       height="76.999992"
       x="3444.5645"
       y="-5029.7021" />
    <rect
       y="-5127.9521"
       x="3444.5645"
       height="76.999992"
       width="42"
       id="rect114576"
       style="opacity:1;fill:#ffffff;fill-opacity:1;fill-rule:nonzero;stroke:none;stroke-width:0.029611;stroke-linecap:round;stroke-linejoin:miter;stroke-miterlimit:10;stroke-dasharray:none;stroke-opacity:1;paint-order:stroke fill markers" />
    <rect
       y="-5226.2021"
       x="3444.5645"
       height="76.999992"
       width="42"
       id="rect114578"
       style="opacity:1;fill:#ffffff;fill-opacity:1;fill-rule:nonzero;stroke:none;stroke-width:0.029611;stroke-linecap:round;stroke-linejoin:miter;stroke-miterlimit:10;stroke-dasharray:none;stroke-opacity:1;paint-order:stroke fill markers" />
    <rect
       style="opacity:1;fill:#ffffff;fill-opacity:1;fill-rule:nonzero;stroke:none;stroke-width:0.029611;stroke-linecap:round;stroke-linejoin:miter;stroke-miterlimit:10;stroke-dasharray:none;stroke-opacity:1;paint-order:stroke fill markers"
       id="rect114580"
       width="42"
       height="76.999992"
       x="3444.5645"
       y="-5324.4521" />
    <rect
       y="-5422.7021"
       x="3444.5645"
       height="76.999992"
       width="42"
       id="rect114582"
       style="opacity:1;fill:#ffffff;fill-opacity:1;fill-rule:nonzero;stroke:none;stroke-width:0.029611;stroke-linecap:round;stroke-linejoin:miter;stroke-miterlimit:10;stroke-dasharray:none;stroke-opacity:1;paint-order:stroke fill markers" />
    <rect
       style="opacity:1;fill:#ffffff;fill-opacity:1;fill-rule:nonzero;stroke:none;stroke-width:0.029611;stroke-linecap:round;stroke-linejoin:miter;stroke-miterlimit:10;stroke-dasharray:none;stroke-opacity:1;paint-order:stroke fill markers"
       id="rect114584"
       width="42"
       height="76.999992"
       x="3444.5645"
       y="-5520.9521" />
    <rect
       style="opacity:1;fill:#ffffff;fill-opacity:1;fill-rule:nonzero;stroke:none;stroke-width:0.029611;stroke-linecap:round;stroke-linejoin:miter;stroke-miterlimit:10;stroke-dasharray:none;stroke-opacity:1;paint-order:stroke fill markers"
       id="rect114586"
       width="42"
       height="76.999992"
       x="3444.5645"
       y="-5619.2021" />
    <rect
       y="-5717.4521"
       x="3444.5645"
       height="76.999992"
       width="42"
       id="rect114588"
       style="opacity:1;fill:#ffffff;fill-opacity:1;fill-rule:nonzero;stroke:none;stroke-width:0.029611;stroke-linecap:round;stroke-linejoin:miter;stroke-miterlimit:10;stroke-dasharray:none;stroke-opacity:1;paint-order:stroke fill markers" />
    <rect
       style="opacity:1;fill:#ffffff;fill-opacity:1;fill-rule:nonzero;stroke:none;stroke-width:0.029611;stroke-linecap:round;stroke-linejoin:miter;stroke-miterlimit:10;stroke-dasharray:none;stroke-opacity:1;paint-order:stroke fill markers"
       id="rect114590"
       width="42"
       height="76.999992"
       x="3444.5645"
       y="-5815.7021" />
    <rect
       y="-5913.9521"
       x="3444.5645"
       height="76.999992"
       width="42"
       id="rect114592"
       style="opacity:1;fill:#ffffff;fill-opacity:1;fill-rule:nonzero;stroke:none;stroke-width:0.029611;stroke-linecap:round;stroke-linejoin:miter;stroke-miterlimit:10;stroke-dasharray:none;stroke-opacity:1;paint-order:stroke fill markers" />
    <rect
       y="-6012.2021"
       x="3444.5645"
       height="76.999992"
       width="42"
       id="rect114594"
       style="opacity:1;fill:#ffffff;fill-opacity:1;fill-rule:nonzero;stroke:none;stroke-width:0.029611;stroke-linecap:round;stroke-linejoin:miter;stroke-miterlimit:10;stroke-dasharray:none;stroke-opacity:1;paint-order:stroke fill markers" />
    <rect
       style="opacity:1;fill:#ffffff;fill-opacity:1;fill-rule:nonzero;stroke:none;stroke-width:0.029611;stroke-linecap:round;stroke-linejoin:miter;stroke-miterlimit:10;stroke-dasharray:none;stroke-opacity:1;paint-order:stroke fill markers"
       id="rect114596"
       width="42"
       height="76.999992"
       x="3444.5645"
       y="-6110.4521" />
    <rect
       y="-6208.7021"
       x="3444.5645"
       height="76.999992"
       width="42"
       id="rect114598"
       style="opacity:1;fill:#ffffff;fill-opacity:1;fill-rule:nonzero;stroke:none;stroke-width:0.029611;stroke-linecap:round;stroke-linejoin:miter;stroke-miterlimit:10;stroke-dasharray:none;stroke-opacity:1;paint-order:stroke fill markers" />
    <rect
       style="opacity:1;fill:#ffffff;fill-opacity:1;fill-rule:nonzero;stroke:none;stroke-width:0.029611;stroke-linecap:round;stroke-linejoin:miter;stroke-miterlimit:10;stroke-dasharray:none;stroke-opacity:1;paint-order:stroke fill markers"
       id="rect114600"
       width="42"
       height="76.999992"
       x="3444.5645"
       y="-6306.9517" />
    <rect
       y="-6344.2017"
       x="3444.5645"
       height="16"
       width="42"
       id="rect114602"
       style="opacity:1;fill:#ffffff;fill-opacity:1;fill-rule:nonzero;stroke:none;stroke-width:0.0134979;stroke-linecap:round;stroke-linejoin:miter;stroke-miterlimit:10;stroke-dasharray:none;stroke-opacity:1;paint-order:stroke fill markers" />
    <rect
       style="opacity:1;fill:#ffffff;fill-opacity:1;fill-rule:nonzero;stroke:none;stroke-width:0.0134979;stroke-linecap:round;stroke-linejoin:miter;stroke-miterlimit:10;stroke-dasharray:none;stroke-opacity:1;paint-order:stroke fill markers"
       id="rect114604"
       width="42"
       height="16"
       x="3444.5645"
       y="-4145.4517" />
    <path
       style="fill:#ffffff;fill-opacity:1;fill-rule:nonzero;stroke:none;stroke-width:361.338;stroke-linecap:round;stroke-linejoin:round;stroke-miterlimit:4;stroke-dasharray:none;stroke-opacity:1;paint-order:stroke fill markers"
       d="m 2026.5645,-5679.2958 c -18.4448,0.1169 -50.7582,22.1143 -56.3996,69.5299 l -34.4,328.0605 c -19.5044,-0.035 -45.127,39.0552 -45.2004,60.6808 v 183.309 c 5.3946,22.2325 15.6084,39.4246 26.4004,53.7284 v 148.5423 c 0,22.7618 21.497,41.0873 48.1998,41.0873 26.7028,0 48.1996,-18.3255 48.1996,-41.0873 v -148.5423 c 65.5222,12.2592 129.8222,20.8988 192.2,20.8596 62.3778,0.038 126.678,-8.6004 192.2002,-20.8596 v 148.5423 c 0,22.7618 21.497,41.0873 48.1996,41.0873 26.7028,0 48.1998,-18.3255 48.1998,-41.0873 v -148.5423 c 10.7918,-14.3038 21.0058,-31.4959 26.4004,-53.7284 v -183.309 c -0.074,-21.6256 -25.6948,-60.7149 -45.1994,-60.6808 l -34.3998,-328.0605 c -5.6414,-47.4156 -37.9558,-69.4127 -56.4008,-69.5299 z m 40.071,59.732 h 138.9288 138.929 c 31.5196,0.032 65.1814,28.8547 70.0402,66.3698 l 20.7596,195.9515 c 0.4782,4.864 -1.5346,14.9166 -3.7994,20.5429 -4.6048,9.6639 -12.6148,15.1868 -24.4006,15.171 -4.5202,0 -28.3992,-2.845 -28.3992,-2.845 -85.5556,-7.7433 -112.1122,-7.4272 -173.1296,-8.8488 -61.0172,1.4216 -87.5728,1.1055 -173.1284,8.8488 0,0 -23.8802,2.845 -28.4004,2.845 -11.7856,0 -19.7956,-5.5071 -24.4004,-15.171 -2.2648,-5.6263 -4.2776,-15.6789 -3.7994,-20.5429 l 20.7596,-195.9515 c 4.8588,-37.5151 38.5204,-66.3369 70.0402,-66.3698 z m 85.1286,377.0476 h 107.6006 l 107.9996,15.1713 -0.04,32.8685 h -323.5606 v -32.8685 z m -181.1994,6.3206 a 43.999998,69.53086 0 0 1 43.9994,69.5315 43.999998,69.53086 0 0 1 -43.9994,69.53 43.999998,69.53086 0 0 1 -44.0004,-69.53 43.999998,69.53086 0 0 1 44.0004,-69.5315 z m 470.0004,0 a 44,69.530864 0 0 1 43.9994,69.5315 44,69.530864 0 0 1 -43.9994,69.53 44,69.530864 0 0 1 -44.0004,-69.53 44,69.530864 0 0 1 44.0004,-69.5315 z m -396.7604,75.2201 h 323.5596 v 48.0398 h -323.5998 z m -0.04,81.5408 h 323.5606 l 0.04,32.8688 -107.9996,15.171 h -107.6006 l -107.9996,-15.171 z"
       id="rect10823"
       inkscape:connector-curvature="0" />
    <path
       style="fill:#ffffff;fill-opacity:1;fill-rule:nonzero;stroke:none;stroke-width:0.151437;stroke-linecap:round;stroke-linejoin:miter;stroke-miterlimit:10;stroke-dasharray:none;stroke-opacity:1;paint-order:stroke fill markers"
       d="m 3086.1573,-4987.9378 c -9.4563,0.081 -21.3477,5.1875 -23.8523,33.6598 l -1.3329,2.3702 4.148,17.7773 8.4443,2.3702 4.2964,11.3782 -2.9628,11.1408 v 2.3702 l 9.7772,8.7704 v 4.7404 l 9.7779,15.6448 24,-29.1556 1.3336,-2.3702 2.8144,-22.519 c -1.9773,-36.8558 -14.6526,-56.0864 -36.4438,-56.1775 z m 42.0737,90.0733 -22.5186,31.2897 -2.6666,2.37 c -1.3373,33.4054 -2.985,42.2579 -7.1106,56.4152 -2.6501,7.3584 -11.9981,17.8588 -13.9258,18.0149 -3.737,0.4157 -10.2884,-4.7201 -14.2228,-6.6379 -6.9376,-2.9796 -23.7468,-15.3569 -40.2961,-16.1173 -10.6636,0.1312 -22.3651,4.0462 -29.6295,15.6432 h -2.6664 l -69.0374,150.7563 c -43.4499,-33.0891 -78.6902,-27.1353 -110.2224,-2.1338 l 8.4443,13.5108 c 43.1657,-29.6446 72.2099,-12.5416 95.2593,2.3717 l -15.6248,34.724 c -14.1099,-13.3665 -30.1991,-20.4459 -46.5967,-20.5028 -50.7289,-4e-4 -91.8527,65.7977 -91.8524,146.9636 1e-4,81.1658 41.1238,146.9633 91.8524,146.9628 50.7281,-3e-4 91.8514,-65.7975 91.8515,-146.9628 -0.044,-45.9687 -13.5309,-89.256 -36.446,-116.9849 l 16.446,-35.6674 c 50.3938,49.6216 56.3965,88.75 65.9253,126.5776 h 12.7408 l 10.9638,49.3044 h 124.1667 c 7.1294,71.2609 45.5428,123.6949 90.6481,123.7331 50.7281,-3e-4 91.8513,-65.7975 91.8514,-146.9628 3e-4,-81.1654 -41.123,-146.9634 -91.8514,-146.9636 -19.3655,0.065 -38.2227,9.9205 -53.8775,28.1597 l -9.1915,-21.8036 c 16.5097,-17.4925 36.3029,-27.6894 57.5874,-27.6894 18.4913,0.071 36.642,8.0242 52.5919,22.9931 l -1.4813,-15.881 c -15.3022,-21.2667 -32.8093,-29.999 -51.8517,-29.3934 l -6.8144,-33.6598 -7.1115,-4.5027 c -2.1147,10.8269 -9.7759,15.734 -12.5921,15.8812 -15.3063,0.047 -17.4629,-21.8275 -18.2223,-43.1408 v -24.415 c -0.2927,-6.6797 -2.6672,-15.8811 -2.6672,-15.8811 -8.3605,-52.7883 -23.1839,-92.3941 -51.8519,-130.3712 z m -97.4816,109.9858 c 6.0181,0.6233 10.8052,7.6342 13.3341,9.0071 l 47.7031,24.8891 16.7409,-24.8891 28.148,69.9259 v 9.0081 l -63.1111,29.1555 -60.1483,-56.4151 h -36.1981 l 20.643,-44.5625 8.4444,-7.1119 4.2963,11.3783 8.5922,-11.3783 1.1859,-4.2663 c 0,0 9.0019,-4.777 10.3696,-4.7408 z m -42.6823,155.497 h 54.6828 l 5.6293,27.0217 -34.9631,2.1338 4.1486,56.1773 -4.2965,18.015 z m 173.07,31.9385 9.4987,22.5311 c -18.1099,27.4063 -28.4803,65.412 -28.7307,105.2933 h -18.1182 c 0.044,-51.3237 14.5542,-97.2168 37.3502,-127.8244 z m -303.7202,22.579 c 11.051,0.033 21.9233,4.4631 31.639,12.8887 l -26.2257,57.3029 c -12.0657,0.445 -21.704,16.2174 -21.7102,35.5279 3e-4,19.6363 9.9495,35.5546 22.2224,35.5546 12.2729,0 22.222,-15.9183 22.2223,-35.5546 -0.015,-13.2441 -4.6142,-25.3838 -11.9552,-31.5027 l 24.2404,-52.2577 c 16.5144,20.1559 26.2138,51.4755 26.2333,84.7082 -1e-4,58.9102 -29.8475,106.6662 -66.6663,106.6665 -36.8191,2e-4 -66.6671,-47.7557 -66.6672,-106.6665 -3e-4,-58.9108 29.8478,-106.6677 66.6672,-106.6673 z m 376.2962,0 c 36.8189,2e-4 66.6666,47.757 66.6663,106.6673 -2e-4,58.9102 -29.8477,106.6662 -66.6663,106.6665 -31.2047,-0.041 -58.2172,-34.7077 -65.0129,-83.4368 h 31.8695 c 5.5826,16.3655 16.3052,26.5475 27.958,26.5476 17.5913,0 31.852,-22.8168 31.852,-50.9629 0,-28.146 -14.2607,-50.963 -31.852,-50.963 -6.0917,0.024 -12.0522,2.8324 -17.1749,8.1067 l -17.4406,-41.3706 c 11.4913,-13.7544 25.4499,-21.2091 39.8009,-21.2548 z m -48.7267,33.994 17.6603,41.8898 c -3.8381,8.5649 -5.9222,18.823 -5.9655,29.3616 h -29.6039 c 0.2336,-26.4844 6.6174,-51.8825 17.9091,-71.2514 z"
       id="path59113"
       inkscape:connector-curvature="0" />
    <path
       inkscape:connector-curvature="0"
       id="path114452"
       d="m 2866.5645,-6149.4194 c -18.4448,0.1169 -50.7582,22.1143 -56.3996,69.5299 l -34.4,328.0607 c -19.5044,-0.035 -45.127,39.0552 -45.2004,60.6808 v 183.309 c 5.3946,22.2325 15.6084,39.4246 26.4004,53.7284 v 148.5423 c 0,22.7618 21.497,41.0873 48.1998,41.0873 26.7028,0 48.1996,-18.3255 48.1996,-41.0873 v -148.5423 c 65.5222,12.2592 129.8222,20.8988 192.2,20.8596 62.3778,0.038 126.678,-8.6004 192.2002,-20.8596 v 148.5423 c 0,22.7618 21.497,41.0873 48.1996,41.0873 26.7028,0 48.1998,-18.3255 48.1998,-41.0873 v -148.5423 c 10.7918,-14.3038 21.0058,-31.4959 26.4004,-53.7284 v -183.309 c -0.074,-21.6256 -25.6948,-60.7149 -45.1994,-60.6808 l -34.3998,-328.0607 c -5.6414,-47.4156 -37.9558,-69.4126 -56.4008,-69.5299 z m 40.071,59.7321 h 138.9288 138.929 c 31.5196,0.032 65.1814,28.8546 70.0402,66.3697 l 20.7596,195.9517 c 0.4782,4.864 -1.5346,14.9166 -3.7994,20.5429 -4.6048,9.6639 -12.6148,15.1868 -24.4006,15.171 -4.5202,0 -28.3992,-2.8451 -28.3992,-2.8451 -85.5556,-7.7432 -112.1122,-7.4271 -173.1296,-8.8487 -61.0172,1.4216 -87.5728,1.1055 -173.1284,8.8487 0,0 -23.8802,2.8451 -28.4004,2.8451 -11.7856,0 -19.7956,-5.5071 -24.4004,-15.171 -2.2648,-5.6263 -4.2776,-15.6789 -3.7994,-20.5429 l 20.7596,-195.9517 c 4.8588,-37.5151 38.5204,-66.3369 70.0402,-66.3697 z m 85.1286,377.0477 h 107.6006 l 107.9996,15.1713 -0.04,32.8685 h -323.5606 v -32.8685 z m -181.1994,6.3206 a 43.999998,69.53086 0 0 1 43.9994,69.5315 43.999998,69.53086 0 0 1 -43.9994,69.53 43.999998,69.53086 0 0 1 -44.0004,-69.53 43.999998,69.53086 0 0 1 44.0004,-69.5315 z m 470.0004,0 a 44,69.530864 0 0 1 43.9994,69.5315 44,69.530864 0 0 1 -43.9994,69.53 44,69.530864 0 0 1 -44.0004,-69.53 44,69.530864 0 0 1 44.0004,-69.5315 z m -396.7604,75.2201 h 323.5596 v 48.0398 h -323.5998 z m -0.04,81.5408 h 323.5606 l 0.04,32.8688 -107.9996,15.171 h -107.6006 l -107.9996,-15.171 z"
       style="fill:#ffffff;fill-opacity:1;fill-rule:nonzero;stroke:none;stroke-width:361.338;stroke-linecap:round;stroke-linejoin:round;stroke-miterlimit:4;stroke-dasharray:none;stroke-opacity:1;paint-order:stroke fill markers" />
    <path
       style="fill:#ffffff;fill-opacity:1;fill-rule:nonzero;stroke:none;stroke-width:0.0944101;stroke-linecap:round;stroke-linejoin:miter;stroke-miterlimit:10;stroke-dasharray:none;stroke-opacity:1;paint-order:stroke fill markers"
       d="m 3782.898,-4761.1723 c -4.9077,0.046 -14.1326,6.37 -14.1337,11.8545 v 16.0125 l 7.3939,27.4513 -0.036,4.1589 -22.5579,131.3057 1.068,0.444 c 0.013,8.9398 -0.6423,17.4858 -3.6856,28.4323 -13.73,-10.392 -28.7877,-15.8129 -44.0489,-15.8578 -55.9649,0 -101.3333,70.7616 -101.3333,158.0499 0,87.2887 45.3684,158.0499 101.3333,158.0499 55.9648,0 101.3333,-70.7612 101.3333,-158.0499 0,-53.8686 -17.5955,-104.0258 -46.6789,-133.0799 3.1685,-7.5195 5.7194,-25.2334 6.556,-31.9121 l 1.684,0.7038 2.1069,-12.2651 118.3087,154.8366 c -2.3502,7.1746 -3.576,15.1164 -3.5768,23.1729 3e-4,28.1389 14.6254,50.9496 32.6664,50.9498 4.7063,0 9.1988,-1.5848 13.2657,-4.4177 l 13.134,36.2355 h -7.4661 v 17.8846 h 26.6664 v -17.8846 h -11.4667 l -15.0372,-41.4864 c 7.1335,-8.0517 12.1346,-20.5157 13.2836,-35.0426 h 7.4663 c 3.6483,84.6146 48.7144,150.3447 103.0875,150.3551 57.0696,2e-4 103.3336,-72.1578 103.3336,-161.1695 -3e-4,-89.0112 -46.2642,-161.1688 -103.3336,-161.1686 -20.791,0.036 -40.1747,9.6646 -56.4037,26.2294 l -49.1263,-103.5495 2.5452,-20.4216 h -3.9598 l 4.6323,-40.9686 13.1127,14.3499 16.533,-13.7255 c -0.032,-0.1664 3.1336,-1.6343 5.0671,-6.2395 1.4365,-3.5285 3.7273,-10.1172 3.733,-13.7246 0.013,-6.2857 -3.4878,-9.9699 -6.4004,-9.9824 -8.0927,0.065 -17.1043,0.4287 -22.9331,4.1589 l -34.4,-2.0794 c -6.09,-0.3245 -17.7339,5.9943 -17.8663,13.7255 v 7.9031 h 22.7996 c 4.1797,0.2331 11.7601,3.8622 15.1033,4.1591 l -4.7969,42.4235 h -2.9731 v 8.7348 h -161.8147 l 8.4316,-49.079 -7.95,-31.6102 c -0.3171,-1.6289 0.5384,-6.1955 3.9997,-6.2383 h 9.5747 c 2.2985,0.1232 5.908,2.1396 8.0257,2.0794 3.009,-0.2038 9.0646,-4.759 9.0668,-9.9826 v -1.6635 c 0,-5.9137 -2.7362,-10.0112 -6.6201,-10.0631 -5.1449,0.1501 -21.8104,-1.9777 -26.7133,-1.9989 z m -0.5297,124.3602 h 161.6038 l -23.446,188.0641 c -0.4092,-0.036 -0.8187,-0.057 -1.2285,-0.068 -4.4498,0 -8.813,1.4343 -12.8378,4.1269 l -13.0286,-35.9456 h 7.4662 v -17.8844 h -26.6665 v 17.8844 h 11.4667 l 14.8856,41.0675 c -0.9738,1.0652 -1.9179,2.2063 -2.8188,3.442 l -122.3621,-160.1401 z m 171.2266,20.8033 42.589,89.769 c -21.92,28.5201 -36.1753,70.9619 -37.1257,118.8083 h -7.6909 c -2.0426,-16.5621 -9.2076,-30.4743 -19.1362,-37.1565 z m 108.6362,73.1955 c 49.7057,-2e-4 90.0002,62.8466 90.0003,140.3727 2e-4,77.5264 -40.2943,140.3741 -90.0003,140.3736 -47.472,-0.02 -86.773,-57.5394 -89.797,-131.4313 l 89.13,-6.2385 h 1.6007 c 2.7807,-0.073 3.2331,-9.4647 -0.9109,-18.7057 l -48.4815,-102.1898 c 13.9994,-14.0178 30.6358,-22.1497 48.4587,-22.181 z m -355.3332,6.2383 c 14.2769,0.032 28.3347,5.4802 40.9601,15.8761 -10.3694,47.5889 -13.8536,61.6151 -34.1196,107.5589 -1.9588,-2.3626 -4.3643,-3.6459 -6.8405,-3.6497 -6.1856,0 -11.2,7.8211 -11.2,17.4687 0,9.6477 5.0144,17.4686 11.2,17.4686 6.1856,0 11.2,-7.8209 11.2,-17.4686 0,-2.8993 -0.4645,-5.7525 -1.3491,-8.3028 12.6655,-20.0701 30.6294,-71.5395 41.3432,-103.1924 23.0736,25.7397 36.7765,67.2498 36.806,111.4952 10e-5,75.8035 -39.3989,137.2544 -88.0001,137.254 -48.6012,4e-4 -88.0002,-61.4505 -88.0001,-137.254 -1e-4,-75.8031 39.3989,-137.254 88.0001,-137.254 z m 297.2283,27.0763 47.4548,100.0257 -79.1959,2.249 c 0.898,-41.0774 13.0507,-77.5359 31.7411,-102.2747 z m -84.8286,94.3728 c 6.1122,-5e-4 11.0673,7.7281 11.067,17.2611 -10e-5,9.5328 -4.9551,17.2605 -11.067,17.2602 -6.1116,-2e-4 -11.0662,-7.7277 -11.0663,-17.2602 -3e-4,-9.5326 4.9544,-17.2609 11.0663,-17.2611 z m -212.3997,6.4466 c 3.3138,0 6,4.1901 6,9.3583 0,5.1686 -2.6862,9.3582 -6,9.3582 -3.3137,0 -6,-4.1896 -6,-9.3582 0,-5.1682 2.6863,-9.3583 6,-9.3583 z"
       id="path72930"
       inkscape:connector-curvature="0"
       sodipodi:nodetypes="cccccccccssccccccccccccccccccccccccccccccccccccccccccccccccccccccccccccccccccccccccsccccccccccccsccccccccccccccccscscs" />
    <path
       style="fill:#ffffff;fill-opacity:1;fill-rule:nonzero;stroke:none;stroke-width:12.6314;stroke-linecap:round;stroke-linejoin:miter;stroke-miterlimit:4;stroke-dasharray:none;stroke-opacity:1;paint-order:stroke fill markers"
       d="m 3650.8262,-5091.4965 a 59.01642,93.260515 0 0 0 -59.0158,93.2611 59.01642,93.260515 0 0 0 59.0158,93.2606 59.01642,93.260515 0 0 0 59.0166,-93.2606 59.01642,93.260515 0 0 0 -59.0166,-93.2611 z m 0,32.6417 a 38.360674,60.619336 0 0 1 38.3606,60.6194 38.360674,60.619336 0 0 1 -38.3606,60.6192 38.360674,60.619336 0 0 1 -38.3606,-60.6192 38.360674,60.619336 0 0 1 38.3606,-60.6194 z"
       id="path66453"
       inkscape:connector-curvature="0" />
    <path
       style="fill:#ffffff;fill-opacity:1;fill-rule:nonzero;stroke:none;stroke-width:12.3585;stroke-linecap:round;stroke-linejoin:miter;stroke-miterlimit:4;stroke-dasharray:none;stroke-opacity:1;paint-order:stroke fill markers"
       d="m 4075.4498,-5091.4965 a 59.01642,93.260515 0 0 0 -59.0165,93.2611 59.01642,93.260515 0 0 0 59.0165,93.2606 59.01642,93.260515 0 0 0 59.016,-93.2606 59.01642,93.260515 0 0 0 -59.016,-93.2611 z m 0,34.9729 a 36.885263,58.287823 0 0 1 36.8854,58.2882 36.885263,58.287823 0 0 1 -36.8854,58.2877 36.885263,58.287823 0 0 1 -36.8852,-58.2877 36.885263,58.287823 0 0 1 36.8852,-58.2882 z"
       id="path66965"
       inkscape:connector-curvature="0" />
    <path
       style="fill:#ffffff;fill-opacity:1;fill-rule:nonzero;stroke:none;stroke-width:11.1282;stroke-linecap:round;stroke-linejoin:miter;stroke-miterlimit:4;stroke-dasharray:none;stroke-opacity:1;paint-order:stroke fill markers"
       d="m 4200.5645,-5394.5925 v 396.3572 h -57.5413 v -104.9178 h -143.9996 v 104.9178 H 3738.761 c -6.7987,-66.0617 -42.9249,-114.6309 -85.2789,-114.7105 -28.2861,0.063 -54.6872,22.0376 -70.8195,58.7542 l -12.0981,-24.2477 121.8683,-127.0675 c 4.8943,-5.2503 7.0762,-9.2698 8.2626,-13.2894 l 22.4264,-84.4005 c 1.7076,-5.7644 4.4757,-19.861 -5.607,-28.9114 l -12.5405,-8.8592 30.836,-53.6252 z m -312.1969,40.1021 h -117.5902 c -9.4354,5.2894 -5.7765,12.6072 -1.3283,42.4333 l -0.7806,8.8604 9.0432,40.1021 -13.8687,19.8171 20.951,9.0929 c 3.7214,-17.2399 8.4992,-22.7668 18.1477,-20.5171 7.4698,3.272 10.681,11.562 10.9891,22.6983 -0.1343,16.2107 -4.7672,24.0583 -13.7927,26.7302 v 97.9236 h 37.7705 v -57.8215 h 50.459 z m 281.2135,1.865 h -237.5409 v 191.1845 h 237.5409 z"
       id="rect67434"
       inkscape:connector-curvature="0"
       sodipodi:nodetypes="ccccccccccccccccccccccccccccccccccccc" />
    <path
       inkscape:connector-curvature="0"
       id="path114454"
       d="m 3926.1573,-6232.3823 c -9.4563,0.081 -21.3477,5.1875 -23.8523,33.6597 l -1.3329,2.3702 4.148,17.7773 8.4443,2.3702 4.2964,11.3783 -2.9628,11.1407 v 2.3702 l 9.7772,8.7704 v 4.7404 l 9.7779,15.6448 24,-29.1556 1.3336,-2.3702 2.8144,-22.519 c -1.9773,-36.8557 -14.6526,-56.0864 -36.4438,-56.1774 z m 42.0737,90.0733 -22.5186,31.2896 -2.6666,2.3701 c -1.3373,33.4053 -2.985,42.2578 -7.1106,56.4151 -2.6501,7.3584 -11.9981,17.8589 -13.9258,18.015 -3.737,0.4156 -10.2884,-4.7202 -14.2228,-6.638 -6.9376,-2.9795 -23.7468,-15.3568 -40.2961,-16.1172 -10.6636,0.1311 -22.3651,4.0462 -29.6295,15.6431 h -2.6664 l -69.0374,150.7564 c -43.4499,-33.0891 -78.6902,-27.1354 -110.2224,-2.1338 l 8.4443,13.5108 c 43.1657,-29.6447 72.2099,-12.5417 95.2593,2.3716 l -15.6248,34.724 c -14.1099,-13.3665 -30.1991,-20.4458 -46.5967,-20.5027 -50.7289,-5e-4 -91.8527,65.7977 -91.8524,146.9637 1e-4,81.1658 41.1238,146.9633 91.8524,146.9628 50.7281,-3e-4 91.8514,-65.7975 91.8515,-146.9628 -0.044,-45.9689 -13.5309,-89.2561 -36.446,-116.985 l 16.446,-35.6675 c 50.3938,49.6217 56.3965,88.75 65.9253,126.5778 h 12.7408 l 10.9638,49.3044 h 124.1667 c 7.1294,71.2609 45.5428,123.6949 90.6481,123.7331 50.7281,-3e-4 91.8513,-65.7975 91.8514,-146.9628 3e-4,-81.1656 -41.123,-146.9636 -91.8514,-146.9637 -19.3655,0.063 -38.2227,9.9205 -53.8775,28.1597 l -9.1915,-21.8037 c 16.5097,-17.4925 36.3029,-27.6894 57.5874,-27.6894 18.4913,0.071 36.642,8.0242 52.5919,22.9931 l -1.4813,-15.881 c -15.3022,-21.2666 -32.8093,-29.9989 -51.8517,-29.3934 l -6.8144,-33.6597 -7.1115,-4.5028 c -2.1147,10.8269 -9.7759,15.7341 -12.5921,15.8812 -15.3063,0.047 -17.4629,-21.8275 -18.2223,-43.1407 v -24.415 c -0.2927,-6.6797 -2.6672,-15.8812 -2.6672,-15.8812 -8.3605,-52.7883 -23.1839,-92.394 -51.8519,-130.3711 z m -97.4816,109.9858 c 6.0181,0.6232 10.8052,7.6341 13.3341,9.0071 l 47.7031,24.889 16.7409,-24.889 28.148,69.9259 v 9.008 l -63.1111,29.1556 -60.1483,-56.4151 h -36.1981 l 20.643,-44.5625 8.4444,-7.1119 4.2963,11.3782 8.5922,-11.3782 1.1859,-4.2664 c 0,0 9.0019,-4.7769 10.3696,-4.7407 z m -42.6823,155.4969 h 54.6828 l 5.6293,27.0218 -34.9631,2.1338 4.1486,56.1773 -4.2965,18.0149 z m 173.07,31.9385 9.4987,22.5312 c -18.1099,27.4062 -28.4803,65.4119 -28.7307,105.2934 h -18.1182 c 0.044,-51.3239 14.5542,-97.2169 37.3502,-127.8246 z m -303.7202,22.5791 c 11.051,0.033 21.9233,4.4631 31.639,12.8886 l -26.2257,57.3029 c -12.0657,0.445 -21.704,16.2176 -21.7102,35.5281 3e-4,19.6363 9.9495,35.5546 22.2224,35.5546 12.2729,0 22.222,-15.9183 22.2223,-35.5546 -0.015,-13.2441 -4.6142,-25.3838 -11.9552,-31.5027 l 24.2404,-52.2578 c 16.5144,20.1559 26.2138,51.4756 26.2333,84.7083 -1e-4,58.9102 -29.8475,106.6662 -66.6663,106.6665 -36.8191,2e-4 -66.6671,-47.7557 -66.6672,-106.6665 -3e-4,-58.9109 29.8478,-106.6679 66.6672,-106.6674 z m 376.2962,0 c 36.8189,10e-5 66.6666,47.7569 66.6663,106.6674 -2e-4,58.9102 -29.8477,106.6662 -66.6663,106.6665 -31.2047,-0.039 -58.2172,-34.7077 -65.0129,-83.4368 h 31.8695 c 5.5826,16.3655 16.3052,26.5475 27.958,26.5476 17.5913,0 31.852,-22.8168 31.852,-50.9629 0,-28.146 -14.2607,-50.9632 -31.852,-50.9632 -6.0917,0.024 -12.0522,2.8325 -17.1749,8.1067 l -17.4406,-41.3705 c 11.4913,-13.7545 25.4499,-21.2092 39.8009,-21.2548 z m -48.7267,33.9939 17.6603,41.89 c -3.8381,8.5649 -5.9222,18.823 -5.9655,29.3616 h -29.6039 c 0.2336,-26.4844 6.6174,-51.8826 17.9091,-71.2516 z"
       style="fill:#ffffff;fill-opacity:1;fill-rule:nonzero;stroke:none;stroke-width:0.151437;stroke-linecap:round;stroke-linejoin:miter;stroke-miterlimit:10;stroke-dasharray:none;stroke-opacity:1;paint-order:stroke fill markers" />
  </g>
</svg>
