<?xml version="1.0" encoding="UTF-8" standalone="no"?>
<!-- Created with Inkscape (http://www.inkscape.org/) -->

<svg
   width="702mm"
   height="702mm"
   viewBox="0 0 702 702"
   version="1.1"
   id="svg8"
   inkscape:version="1.4.2 (f4327f4, 2025-05-13)"
   sodipodi:docname="Vietnam_road_sign_P133_V2.svg"
   inkscape:export-filename="..\OneDrive - MSFT\Projects\Road Signs\I made\Vietnam_road_sign_P133_V2.svg"
   inkscape:export-xdpi="96"
   inkscape:export-ydpi="96"
   xmlns:inkscape="http://www.inkscape.org/namespaces/inkscape"
   xmlns:sodipodi="http://sodipodi.sourceforge.net/DTD/sodipodi-0.dtd"
   xmlns="http://www.w3.org/2000/svg"
   xmlns:svg="http://www.w3.org/2000/svg"
   xmlns:rdf="http://www.w3.org/1999/02/22-rdf-syntax-ns#"
   xmlns:cc="http://creativecommons.org/ns#"
   xmlns:dc="http://purl.org/dc/elements/1.1/">
  <defs
     id="defs2" />
  <sodipodi:namedview
     id="base"
     pagecolor="#ffffff"
     bordercolor="#666666"
     borderopacity="1.0"
     inkscape:pageopacity="0.0"
     inkscape:pageshadow="2"
     inkscape:zoom="0.1767767"
     inkscape:cx="1414.2135"
     inkscape:cy="752.3616"
     inkscape:document-units="mm"
     inkscape:current-layer="layer1"
     showgrid="false"
     inkscape:window-width="3072"
     inkscape:window-height="1604"
     inkscape:window-x="-12"
     inkscape:window-y="-12"
     inkscape:window-maximized="1"
     inkscape:snap-global="false"
     inkscape:showpageshadow="2"
     inkscape:pagecheckerboard="0"
     inkscape:deskcolor="#d1d1d1" />
  <metadata
     id="metadata5">
    <rdf:RDF>
      <cc:Work
         rdf:about="">
        <dc:format>image/svg+xml</dc:format>
        <dc:type
           rdf:resource="http://purl.org/dc/dcmitype/StillImage" />
      </cc:Work>
    </rdf:RDF>
  </metadata>
  <g
     inkscape:label="Layer 1"
     inkscape:groupmode="layer"
     id="layer1"
     transform="translate(0,405)">
    <circle
       style="opacity:1;fill:#ffffff;fill-opacity:1;fill-rule:nonzero;stroke:none;stroke-width:5.65453672;stroke-linecap:round;stroke-linejoin:miter;stroke-miterlimit:4;stroke-dasharray:none;stroke-opacity:1;paint-order:stroke fill markers"
       id="path836"
       cx="351"
       cy="-53.999989"
       r="340" />
    <path
       inkscape:connector-curvature="0"
       id="path830-0"
       d="m 155.31111,-134 c -5.73838,0.0199 -15.79146,3.74845 -17.54657,11.78555 0,0 -24.7417,62.22735 -24.76454,65.89299 v 31.07148 c 1.67832,3.76846 4.85596,6.68261 8.21348,9.10713 V 16 h 29.9909 V -16.14285 H 270.79561 V 16 h 29.99091 v -32.14285 c 3.35744,-2.42452 6.53516,-5.33867 8.21348,-9.10713 v -31.07148 c -0.0231,-3.66564 -24.76422,-65.89299 -24.76422,-65.89299 -1.75512,-8.0371 -11.80845,-11.76569 -17.5469,-11.78555 z m 12.46652,10.12481 H 211 254.22236 c 9.8061,0.006 20.27866,4.89093 21.79028,11.24986 l 6.4585,33.21447 c 0.14878,0.82446 -0.47738,2.52839 -1.18199,3.48208 -1.4326,1.63803 -3.9246,2.57421 -7.59129,2.57154 H 148.30212 c -3.66662,0.003 -6.15869,-0.93351 -7.59128,-2.57154 -0.70462,-0.95369 -1.33077,-2.65762 -1.18199,-3.48208 l 6.4585,-33.21447 c 1.51162,-6.35893 11.98418,-11.2443 21.79028,-11.24986 z"
       style="fill:#000000;fill-opacity:1;fill-rule:nonzero;stroke:none;stroke-width:82.9777;stroke-linecap:round;stroke-linejoin:round;stroke-miterlimit:4;stroke-dasharray:none;stroke-opacity:1;paint-order:stroke fill markers"
       sodipodi:nodetypes="ccccccccccccccccccccccccccccc"
       inkscape:label="path8302" />
    <path
       inkscape:connector-curvature="0"
       id="path830"
       d="m 435.31111,-134 c -5.73838,0.0199 -15.79146,3.74845 -17.54657,11.78555 0,0 -24.7417,62.227354 -24.76454,65.892992 v 31.071477 c 1.67832,3.768465 4.85596,6.682606 8.21348,9.107133 V 16 h 29.9909 V -16.142848 H 550.79561 V 16 h 29.99091 v -32.142848 c 3.35744,-2.424527 6.53516,-5.338668 8.21348,-9.107133 v -31.071477 c -0.0231,-3.665638 -24.76422,-65.892992 -24.76422,-65.892992 -1.75512,-8.0371 -11.80845,-11.76569 -17.5469,-11.78555 z m 12.46652,10.12481 H 491 534.22236 c 9.8061,0.006 20.27866,4.89093 21.79028,11.24986 l 6.4585,33.21447 c 0.14878,0.824459 -0.47738,2.528388 -1.18199,3.482075 -1.4326,1.638031 -3.9246,2.574218 -7.59129,2.571544 H 428.30212 c -3.66662,0.0029 -6.15869,-0.933513 -7.59128,-2.571544 -0.70462,-0.953687 -1.33077,-2.657616 -1.18199,-3.482075 l 6.4585,-33.21447 c 1.51162,-6.35893 11.98418,-11.2443 21.79028,-11.24986 z"
       style="fill:#000000;fill-opacity:1;fill-rule:nonzero;stroke:none;stroke-width:82.9777;stroke-linecap:round;stroke-linejoin:round;stroke-miterlimit:4;stroke-dasharray:none;stroke-opacity:1;paint-order:stroke fill markers"
       sodipodi:nodetypes="ccccccccccccccccccccccccccccc" />
    <rect
       transform="rotate(45)"
       style="opacity:1;fill:#000000;fill-opacity:1;fill-rule:nonzero;stroke:none;stroke-width:2.04700708;stroke-linecap:round;stroke-linejoin:miter;stroke-miterlimit:4;stroke-dasharray:none;stroke-opacity:1;paint-order:stroke fill markers"
       id="rect26838"
       width="9.8000002"
       height="660"
       x="165.0106"
       y="-616.3783" />
    <rect
       transform="rotate(45)"
       y="-616.3783"
       x="185.06065"
       height="660"
       width="9.8000002"
       id="rect26840"
       style="opacity:1;fill:#000000;fill-opacity:1;fill-rule:nonzero;stroke:none;stroke-width:2.04700708;stroke-linecap:round;stroke-linejoin:miter;stroke-miterlimit:4;stroke-dasharray:none;stroke-opacity:1;paint-order:stroke fill markers" />
    <rect
       transform="rotate(45)"
       y="-616.3783"
       x="205.11058"
       height="660"
       width="9.8000002"
       id="rect26842"
       style="opacity:1;fill:#000000;fill-opacity:1;fill-rule:nonzero;stroke:none;stroke-width:2.04700708;stroke-linecap:round;stroke-linejoin:miter;stroke-miterlimit:4;stroke-dasharray:none;stroke-opacity:1;paint-order:stroke fill markers" />
    <rect
       transform="rotate(45)"
       style="opacity:1;fill:#000000;fill-opacity:1;fill-rule:nonzero;stroke:none;stroke-width:2.04700708;stroke-linecap:round;stroke-linejoin:miter;stroke-miterlimit:4;stroke-dasharray:none;stroke-opacity:1;paint-order:stroke fill markers"
       id="rect26844"
       width="9.8000002"
       height="660"
       x="225.16063"
       y="-616.3783" />
    <rect
       transform="rotate(45)"
       y="-616.3783"
       x="245.21068"
       height="660"
       width="9.8000002"
       id="rect26846"
       style="opacity:1;fill:#000000;fill-opacity:1;fill-rule:nonzero;stroke:none;stroke-width:2.04700708;stroke-linecap:round;stroke-linejoin:miter;stroke-miterlimit:4;stroke-dasharray:none;stroke-opacity:1;paint-order:stroke fill markers" />
    <path
       id="path26848"
       d="M 350.99979,-404.00019 A 349.99998,349.99998 0 0 0 1,-53.99986 349.99998,349.99998 0 0 0 350.99979,296 349.99998,349.99998 0 0 0 701.0002,-53.99986 349.99998,349.99998 0 0 0 350.99979,-404.00019 Z m 0,49.70032 A 300.29999,300.29999 0 0 1 651.2998,-53.99986 300.29999,300.29999 0 0 1 350.99979,246.3002 a 300.29999,300.29999 0 0 1 -300.3,-300.30006 300.29999,300.29999 0 0 1 300.3,-300.30001 z"
       style="opacity:1;fill:#1e96d5;fill-opacity:1;fill-rule:nonzero;stroke:none;stroke-width:315.81491089;stroke-linecap:round;stroke-linejoin:round;stroke-miterlimit:4;stroke-dasharray:none;stroke-opacity:1;paint-order:stroke fill markers"
       inkscape:connector-curvature="0" />
  </g>
</svg>
