<?xml version="1.0" encoding="UTF-8" standalone="no"?>
<!-- Created with Inkscape (http://www.inkscape.org/) -->

<svg
   width="702mm"
   height="702mm"
   viewBox="0 0 702 702"
   version="1.1"
   id="svg8"
   inkscape:version="1.4 (86a8ad7, 2024-10-11)"
   sodipodi:docname="Vietnam_road_sign_P125_V2.svg"
   xmlns:inkscape="http://www.inkscape.org/namespaces/inkscape"
   xmlns:sodipodi="http://sodipodi.sourceforge.net/DTD/sodipodi-0.dtd"
   xmlns="http://www.w3.org/2000/svg"
   xmlns:svg="http://www.w3.org/2000/svg"
   xmlns:rdf="http://www.w3.org/1999/02/22-rdf-syntax-ns#"
   xmlns:cc="http://creativecommons.org/ns#"
   xmlns:dc="http://purl.org/dc/elements/1.1/">
  <defs
     id="defs2" />
  <sodipodi:namedview
     id="base"
     pagecolor="#ffffff"
     bordercolor="#666666"
     borderopacity="1.0"
     inkscape:pageopacity="0.0"
     inkscape:pageshadow="2"
     inkscape:zoom="0.26124924"
     inkscape:cx="1085.1706"
     inkscape:cy="1284.2143"
     inkscape:document-units="mm"
     inkscape:current-layer="layer1"
     showgrid="false"
     inkscape:window-width="1920"
     inkscape:window-height="991"
     inkscape:window-x="-9"
     inkscape:window-y="-9"
     inkscape:window-maximized="1"
     inkscape:showpageshadow="2"
     inkscape:pagecheckerboard="0"
     inkscape:deskcolor="#d1d1d1"
     showguides="false" />
  <metadata
     id="metadata5">
    <rdf:RDF>
      <cc:Work
         rdf:about="">
        <dc:format>image/svg+xml</dc:format>
        <dc:type
           rdf:resource="http://purl.org/dc/dcmitype/StillImage" />
      </cc:Work>
    </rdf:RDF>
  </metadata>
  <g
     inkscape:label="Layer 1"
     inkscape:groupmode="layer"
     id="layer1"
     transform="translate(0,405)">
    <circle
       style="opacity:1;fill:#f00a0a;fill-opacity:1;fill-rule:nonzero;stroke:none;stroke-width:315.815;stroke-linecap:round;stroke-linejoin:round;stroke-miterlimit:4;stroke-dasharray:none;stroke-opacity:1;paint-order:stroke fill markers"
       id="path815"
       cx="351"
       cy="-54"
       r="350"
       sodipodi:insensitive="true" />
    <circle
       cy="-54"
       cx="351"
       id="circle817"
       style="opacity:1;fill:#ffffff;fill-opacity:1;fill-rule:nonzero;stroke:none;stroke-width:225.582;stroke-linecap:round;stroke-linejoin:round;stroke-miterlimit:4;stroke-dasharray:none;stroke-opacity:1;paint-order:stroke fill markers"
       r="250"
       sodipodi:insensitive="true" />
    <path
       style="opacity:1;fill:#f00a0a;fill-opacity:1;fill-rule:nonzero;stroke:none;stroke-width:79.8054;stroke-linecap:round;stroke-linejoin:round;stroke-miterlimit:4;stroke-dasharray:none;stroke-opacity:1;paint-order:stroke fill markers"
       d="m 196.27777,-131.7 c -5.12356,0.0206 -14.09952,3.88339 -15.66658,12.20983 0,0 -22.09081,64.46754 -22.11119,68.26514 v 32.19005 c 1.49849,3.90413 4.33568,6.92318 7.33345,9.4349903 V 23.7 h 26.77759 V -9.5999897 h 106.7779 V 23.7 h 26.7776 V -9.5999897 C 329.16425,-12.1118 332.0015,-15.13085 333.5,-19.03498 v -32.19005 c -0.0206,-3.7976 -22.11091,-68.26514 -22.11091,-68.26514 -1.56707,-8.32644 -10.54326,-12.18925 -15.66688,-12.20983 z m 11.13082,10.4893 h 38.5914 38.5914 c 8.75545,0.006 18.10595,5.06701 19.45561,11.65486 l 5.76652,34.41019 c 0.13284,0.85414 -0.42623,2.61941 -1.05535,3.60743 -1.27911,1.697 -3.50411,2.66689 -6.77794,2.66412 H 190.01975 c -3.27378,0.003 -5.49883,-0.96712 -6.77794,-2.66412 -0.62912,-0.98802 -1.18818,-2.75329 -1.05535,-3.60743 l 5.76652,-34.41019 c 1.34967,-6.58785 10.70016,-11.6491 19.45561,-11.65486 z"
       id="rect10823"
       inkscape:connector-curvature="0"
       sodipodi:nodetypes="ccccccccccccccccccccccccccccc" />
    <path
       inkscape:connector-curvature="0"
       id="path830"
       d="m 406.27778,-131.7 c -5.12356,0.0206 -14.09952,3.88339 -15.66658,12.20983 0,0 -22.09081,64.46754 -22.1112,68.26514 v 32.19005 c 1.4985,3.90413 4.33568,6.92318 7.33346,9.4349903 V 23.7 h 26.77759 V -9.5999897 H 509.38894 V 23.7 h 26.7776 V -9.5999897 C 539.16425,-12.1118 542.0015,-15.13085 543.5,-19.03498 v -32.19005 c -0.0206,-3.7976 -22.11091,-68.26514 -22.11091,-68.26514 -1.56707,-8.32644 -10.54326,-12.18925 -15.66688,-12.20983 z m 11.13082,10.4893 H 456 494.59139 c 8.75545,0.006 18.10595,5.06701 19.45561,11.65486 l 5.76652,34.41019 c 0.13284,0.85414 -0.42623,2.61941 -1.05535,3.60743 -1.27911,1.697 -3.50411,2.66689 -6.77794,2.66412 H 400.01975 c -3.27377,0.003 -5.49883,-0.96712 -6.77793,-2.66412 -0.62912,-0.98802 -1.18819,-2.75329 -1.05535,-3.60743 l 5.76652,-34.41019 c 1.34966,-6.58785 10.70016,-11.6491 19.45561,-11.65486 z"
       style="opacity:1;fill:#000000;fill-opacity:1;fill-rule:nonzero;stroke:none;stroke-width:79.8054;stroke-linecap:round;stroke-linejoin:round;stroke-miterlimit:4;stroke-dasharray:none;stroke-opacity:1;paint-order:stroke fill markers"
       sodipodi:nodetypes="ccccccccccccccccccccccccccccc"
       sodipodi:insensitive="true" />
  </g>
</svg>
