<?xml version="1.0" encoding="UTF-8" standalone="no"?>
<svg
   xmlns:dc="http://purl.org/dc/elements/1.1/"
   xmlns:cc="http://creativecommons.org/ns#"
   xmlns:rdf="http://www.w3.org/1999/02/22-rdf-syntax-ns#"
   xmlns:svg="http://www.w3.org/2000/svg"
   xmlns="http://www.w3.org/2000/svg"
   xmlns:sodipodi="http://sodipodi.sourceforge.net/DTD/sodipodi-0.dtd"
   xmlns:inkscape="http://www.inkscape.org/namespaces/inkscape"
   sodipodi:docname="Vietnam_road_sign_S508a.svg"
   inkscape:version="1.0 (4035a4fb49, 2020-05-01)"
   id="svg848"
   version="1.1"
   viewBox="0 0 555.08954 200.00001"
   height="200mm"
   width="555.08954mm">
  <defs
     id="defs842">
    <clipPath
       id="clip88">
      <path
         d="M 361,1.980469 H 581 V 151 H 361 Z m 0,0"
         id="path1418" />
    </clipPath>
    <clipPath
       id="clip90">
      <path
         d="M 376,1.980469 H 587 V 151 H 376 Z m 0,0"
         id="path1424" />
    </clipPath>
    <clipPath
       id="clip91">
      <path
         d="M 383,1.980469 H 595 V 151 H 383 Z m 0,0"
         id="path1427" />
    </clipPath>
    <clipPath
       id="clip92">
      <path
         d="M 389,1.980469 H 600 V 151 H 389 Z m 0,0"
         id="path1430" />
    </clipPath>
    <clipPath
       id="clip93">
      <path
         d="M 395,1.980469 H 610.73828 V 151 H 395 Z m 0,0"
         id="path1433" />
    </clipPath>
    <clipPath
       id="clip94">
      <path
         d="M 407,1.980469 H 610.73828 V 151 H 407 Z m 0,0"
         id="path1436" />
    </clipPath>
    <clipPath
       id="clip95">
      <path
         d="M 413,1.980469 H 610.73828 V 151 H 413 Z m 0,0"
         id="path1439" />
    </clipPath>
    <clipPath
       id="clip96">
      <path
         d="M 415,1.980469 H 610.73828 V 151 H 415 Z m 0,0"
         id="path1442" />
    </clipPath>
    <clipPath
       id="clip132">
      <path
         d="M 149,1.980469 H 360 V 186 H 149 Z m 0,0"
         id="path1550" />
    </clipPath>
    <clipPath
       id="clip133">
      <path
         d="M 155,1.980469 H 366 V 186 H 155 Z m 0,0"
         id="path1553" />
    </clipPath>
    <clipPath
       id="clip135">
      <path
         d="M 164,1.980469 H 375 V 186 H 164 Z m 0,0"
         id="path1559" />
    </clipPath>
    <clipPath
       id="clip136">
      <path
         d="M 167,1.980469 H 378 V 186 H 167 Z m 0,0"
         id="path1562" />
    </clipPath>
    <clipPath
       id="clip137">
      <path
         d="M 170,1.980469 H 381 V 186 H 170 Z m 0,0"
         id="path1565" />
    </clipPath>
    <clipPath
       id="clip138">
      <path
         d="M 177,1.980469 H 388 V 186 H 177 Z m 0,0"
         id="path1568" />
    </clipPath>
    <clipPath
       id="clip140">
      <path
         d="M 185,1.980469 H 397 V 186 H 185 Z m 0,0"
         id="path1574" />
    </clipPath>
    <clipPath
       id="clip141">
      <path
         d="M 191,1.980469 H 402 V 186 H 191 Z m 0,0"
         id="path1577" />
    </clipPath>
  </defs>
  <sodipodi:namedview
     inkscape:document-rotation="0"
     inkscape:measure-end="0,0"
     inkscape:measure-start="0,0"
     showguides="false"
     fit-margin-bottom="0"
     fit-margin-right="0"
     fit-margin-left="0"
     fit-margin-top="0"
     inkscape:window-maximized="1"
     inkscape:window-y="-9"
     inkscape:window-x="-9"
     inkscape:window-height="1001"
     inkscape:window-width="1920"
     inkscape:snap-global="false"
     showgrid="false"
     inkscape:current-layer="layer1"
     inkscape:document-units="mm"
     inkscape:cy="1138.3822"
     inkscape:cx="1211.2623"
     inkscape:zoom="0.45028855"
     inkscape:pageshadow="2"
     inkscape:pageopacity="0.0"
     borderopacity="1.0"
     bordercolor="#666666"
     pagecolor="#ffffff"
     id="base" />
  <metadata
     id="metadata845">
    <rdf:RDF>
      <cc:Work
         rdf:about="">
        <dc:format>image/svg+xml</dc:format>
        <dc:type
           rdf:resource="http://purl.org/dc/dcmitype/StillImage" />
        <dc:title />
      </cc:Work>
    </rdf:RDF>
  </metadata>
  <g
     transform="translate(403.37186,-155.26916)"
     id="layer1"
     inkscape:groupmode="layer"
     inkscape:label="Layer 1">
    <g
       style="opacity:1;stroke-width:0.112506;stroke-miterlimit:4;stroke-dasharray:none"
       id="g26445"
       transform="matrix(3.1348537,0,0,3.1348537,-1731.6253,-959.01214)">
      <path
         id="path26447"
         d="m 423.70508,355.44922 v 0.375 63.42383 h 177.07031 v -63.79883 z m 0.75,0.75 h 175.57031 v 62.29883 H 424.45508 Z"
         style="color:#000000;font-style:normal;font-variant:normal;font-weight:normal;font-stretch:normal;font-size:medium;line-height:normal;font-family:sans-serif;font-variant-ligatures:normal;font-variant-position:normal;font-variant-caps:normal;font-variant-numeric:normal;font-variant-alternates:normal;font-variant-east-asian:normal;font-feature-settings:normal;font-variation-settings:normal;text-indent:0;text-align:start;text-decoration:none;text-decoration-line:none;text-decoration-style:solid;text-decoration-color:#000000;letter-spacing:normal;word-spacing:normal;text-transform:none;writing-mode:lr-tb;direction:ltr;text-orientation:mixed;dominant-baseline:auto;baseline-shift:baseline;text-anchor:start;white-space:normal;shape-padding:0;shape-margin:0;inline-size:0;clip-rule:nonzero;display:inline;overflow:visible;visibility:visible;isolation:auto;mix-blend-mode:normal;color-interpolation:sRGB;color-interpolation-filters:linearRGB;solid-color:#000000;solid-opacity:1;vector-effect:none;fill:#000000;fill-opacity:1;fill-rule:evenodd;stroke:none;stroke-width:0.0844005;stroke-linecap:butt;stroke-linejoin:miter;stroke-miterlimit:4;stroke-dasharray:none;stroke-dashoffset:0;stroke-opacity:1;paint-order:stroke fill markers;color-rendering:auto;image-rendering:auto;shape-rendering:auto;text-rendering:auto;enable-background:accumulate;stop-color:#000000;stop-opacity:1" />
      <path
         id="path26449"
         d="m 424.07965,355.82352 h 176.32031 v 63.04977 H 424.07965 Z"
         style="color:#000000;font-style:normal;font-variant:normal;font-weight:normal;font-stretch:normal;font-size:medium;line-height:normal;font-family:sans-serif;font-variant-ligatures:normal;font-variant-position:normal;font-variant-caps:normal;font-variant-numeric:normal;font-variant-alternates:normal;font-variant-east-asian:normal;font-feature-settings:normal;font-variation-settings:normal;text-indent:0;text-align:start;text-decoration:none;text-decoration-line:none;text-decoration-style:solid;text-decoration-color:#000000;letter-spacing:normal;word-spacing:normal;text-transform:none;writing-mode:lr-tb;direction:ltr;text-orientation:mixed;dominant-baseline:auto;baseline-shift:baseline;text-anchor:start;white-space:normal;shape-padding:0;shape-margin:0;inline-size:0;clip-rule:nonzero;display:inline;overflow:visible;visibility:visible;isolation:auto;mix-blend-mode:normal;color-interpolation:sRGB;color-interpolation-filters:linearRGB;solid-color:#000000;solid-opacity:1;vector-effect:none;fill:#ffffff;fill-opacity:1;fill-rule:evenodd;stroke:none;stroke-width:0.0844005;stroke-linecap:butt;stroke-linejoin:miter;stroke-miterlimit:4;stroke-dasharray:none;stroke-dashoffset:0;stroke-opacity:1;paint-order:stroke fill markers;color-rendering:auto;image-rendering:auto;shape-rendering:auto;text-rendering:auto;enable-background:accumulate;stop-color:#000000;stop-opacity:1" />
    </g>
    <g
       aria-label="16"
       id="g26443"
       style="font-size:35.4136px;line-height:1.46;font-family:'Singapore Road Signs';-inkscape-font-specification:'Singapore Road Signs';text-align:center;text-anchor:middle;opacity:1;fill:#a02c2c;stroke-width:0.112506;stroke-miterlimit:4;stroke-dasharray:none"
       transform="matrix(3.1348537,0,0,3.1348537,-1731.6253,-1637.3043)">
      <path
         sodipodi:nodetypes="ssccssssccssssccsscscccsssccssssccssssccsscscscssssssssssssssssssssssssssssccccccccccccccccccssssssssssssssssscssssssccccccccccccccccccccccccc"
         id="path26441"
         style="font-style:normal;font-variant:normal;font-weight:normal;font-stretch:normal;font-family:DINSchrift;-inkscape-font-specification:DINSchrift;opacity:1;fill:#000000;stroke-width:0.112506;stroke-miterlimit:4;stroke-dasharray:none"
         d="m 480.21686,590.90074 c -2.97055,0 -5.44629,2.37027 -5.44629,5.34083 v 2.08594 h 3.60791 v -2.05079 c 0,-0.74264 0.49497,-1.76806 1.76807,-1.76806 1.09627,0 1.76806,0.74251 1.76806,1.76806 v 3.25342 c 0,1.87428 -0.70804,2.19287 -2.86523,2.19287 v 3.18311 c 2.33401,0 2.86523,0.42365 2.86523,2.36865 v 3.60645 c 0,1.23772 -0.67179,2.01708 -1.76806,2.01708 -1.09628,0 -1.76807,-0.81367 -1.76807,-1.94531 v -1.875 h -3.60791 v 2.05079 c 0,3.96073 3.04072,5.37597 5.33936,5.37597 2.19255,0 3.57196,-0.98989 4.45605,-2.29834 0.74264,-1.09628 0.95505,-1.83938 0.95508,-5.16357 0,-3.57173 -1.2e-4,-4.38497 -2.22803,-5.76416 2.05109,-1.23774 2.22792,-1.80341 2.22803,-5.26905 0,-3.2181 -0.4236,-4.20771 -1.37842,-5.33935 -0.63654,-0.77801 -1.98077,-1.76954 -3.92578,-1.76954 z m 77.84912,0 c -2.97055,0 -5.44482,2.37027 -5.44482,5.34083 v 2.08594 h 3.60645 v -2.05079 c 0,-0.74264 0.49497,-1.76806 1.76806,-1.76806 1.09628,0 1.76807,0.74251 1.76807,1.76806 v 3.25342 c 0,1.87428 -0.70659,2.19287 -2.86377,2.19287 v 3.18311 c 2.334,0 2.86377,0.42365 2.86377,2.36865 v 3.60645 c 0,1.23772 -0.67179,2.01708 -1.76807,2.01708 -1.09627,0 -1.76806,-0.81367 -1.76806,-1.94531 v -1.875 h -3.60645 v 2.05079 c 0,3.96073 3.04071,5.37597 5.33935,5.37597 2.19255,0 3.57196,-0.98989 4.45606,-2.29834 0.74263,-1.09628 0.95508,-1.83938 0.95508,-5.16357 0,-3.57173 -1.1e-4,-4.38497 -2.22803,-5.76416 2.0511,-1.23774 2.22803,-1.80341 2.22803,-5.26905 0,-3.2181 -0.42506,-4.20771 -1.37989,-5.33935 -0.63655,-0.77801 -1.98078,-1.76954 -3.92578,-1.76954 z m -65.4126,0.0249 c -2.81207,0 -5.07714,2.26514 -5.07714,5.07715 v 15.35303 c 0,2.81199 2.26506,5.07568 5.07714,5.07568 h 0.62256 c 2.81212,0 5.07569,-2.26369 5.07569,-5.07568 v -15.35303 c 0,-2.81201 -2.26357,-5.07715 -5.07569,-5.07715 z m 39.97413,0 c -2.81208,0 -5.07569,2.26514 -5.07569,5.07715 v 15.35303 c 0,2.81199 2.26361,5.07568 5.07569,5.07568 h 0.62402 c 2.81212,0 5.07568,-2.26369 5.07568,-5.07568 v -15.35303 c 0,-2.81201 -2.26356,-5.07715 -5.07568,-5.07715 z m 37.72558,0 c -2.81207,0 -5.07568,2.26514 -5.07568,5.07715 v 15.35303 c 0,2.81199 2.2636,5.07568 5.07568,5.07568 h 0.62256 c 2.81212,0 5.07569,-2.26369 5.07569,-5.07568 v -15.35303 c 0,-2.81201 -2.26357,-5.07715 -5.07569,-5.07715 z m -121.29639,0.19043 v 6.30029 h 3.16846 v -2.94873 h 3.99903 l -6.1172,21.82325 h 3.81739 l 5.89746,-21.89796 v -3.27685 z m 70.20264,0 -3.59473,2.63233 v 3.81591 l 3.59473,-2.67187 v 21.39844 h 3.57422 v -25.17481 z m -26.29541,3.31201 c 0.95094,0 1.7168,0.76602 1.7168,1.7168 v 14.91504 c 0,0.95076 -0.76586,1.71679 -1.7168,1.71679 -0.95092,0 -1.71533,-0.76603 -1.71533,-1.71679 v -14.91503 c 0,-0.95076 0.76441,-1.7168 1.71533,-1.7168 z m 39.97412,0 c 0.95094,0 1.71827,0.76602 1.71827,1.7168 v 14.91504 c 0,0.95076 -0.76733,1.71679 -1.71827,1.71679 -0.95092,0 -1.71533,-0.76603 -1.71533,-1.71679 v -14.91503 c 0,-0.95076 0.76441,-1.7168 1.71533,-1.7168 z m 37.72559,0 c 0.95094,0 1.71669,0.76602 1.7168,1.7168 v 14.91504 c 0,0.95076 -0.76586,1.71679 -1.7168,1.71679 -0.95092,0 -1.71534,-0.76603 -1.71534,-1.71679 v -14.91503 c 0,-0.95076 0.76442,-1.7168 1.71534,-1.7168 z m -105.20508,7.06201 v 3.59473 h 3.59326 v -3.59473 z m 77.88281,0 v 3.59473 h 3.59473 v -3.59473 z m -42.62549,3.09815 v 3.59326 h 10.76075 v -3.59326 z m -35.25732,4.86328 v 3.59765 h 3.59326 v -3.59765 z m 77.88281,0 v 3.59765 h 3.59473 v -3.59765 z" />
    </g>
    <path
       sodipodi:nodetypes="cccccccccc"
       id="path25734"
       style="opacity:1;fill:#000000;fill-rule:evenodd;stroke-width:5.5;stroke-linejoin:round;paint-order:stroke fill markers"
       d="M -394.34068,164.68206 V 346.23241 H 142.66989 V 164.68206 Z m 8.23818,8.23346 H 134.43625 V 337.98967 H -386.1025 Z" />
  </g>
</svg>
