<?xml version="1.0" encoding="UTF-8" standalone="no"?>
<!-- Created with Inkscape (http://www.inkscape.org/) -->

<svg
   width="702mm"
   height="702mm"
   viewBox="0 0 702 702"
   version="1.1"
   id="svg8"
   inkscape:version="1.4 (86a8ad7, 2024-10-11)"
   sodipodi:docname="Vietnam_road_sign_P126_V2.svg"
   xmlns:inkscape="http://www.inkscape.org/namespaces/inkscape"
   xmlns:sodipodi="http://sodipodi.sourceforge.net/DTD/sodipodi-0.dtd"
   xmlns="http://www.w3.org/2000/svg"
   xmlns:svg="http://www.w3.org/2000/svg"
   xmlns:rdf="http://www.w3.org/1999/02/22-rdf-syntax-ns#"
   xmlns:cc="http://creativecommons.org/ns#"
   xmlns:dc="http://purl.org/dc/elements/1.1/">
  <defs
     id="defs2" />
  <sodipodi:namedview
     id="base"
     pagecolor="#ffffff"
     bordercolor="#666666"
     borderopacity="1.0"
     inkscape:pageopacity="0.0"
     inkscape:pageshadow="2"
     inkscape:zoom="0.26"
     inkscape:cx="1428.8462"
     inkscape:cy="1375"
     inkscape:document-units="mm"
     inkscape:current-layer="layer1"
     showgrid="false"
     inkscape:window-width="1920"
     inkscape:window-height="991"
     inkscape:window-x="-9"
     inkscape:window-y="-9"
     inkscape:window-maximized="1"
     inkscape:showpageshadow="2"
     inkscape:pagecheckerboard="0"
     inkscape:deskcolor="#d1d1d1" />
  <metadata
     id="metadata5">
    <rdf:RDF>
      <cc:Work
         rdf:about="">
        <dc:format>image/svg+xml</dc:format>
        <dc:type
           rdf:resource="http://purl.org/dc/dcmitype/StillImage" />
      </cc:Work>
    </rdf:RDF>
  </metadata>
  <g
     inkscape:label="Layer 1"
     inkscape:groupmode="layer"
     id="layer1"
     transform="translate(0,405)">
    <circle
       style="opacity:1;fill:#f00a0a;fill-opacity:1;fill-rule:nonzero;stroke:none;stroke-width:315.815;stroke-linecap:round;stroke-linejoin:round;stroke-miterlimit:4;stroke-dasharray:none;stroke-opacity:1;paint-order:stroke fill markers"
       id="path815"
       cx="351"
       cy="-54"
       r="350"
       sodipodi:insensitive="true" />
    <circle
       cy="-54"
       cx="351"
       id="circle817"
       style="opacity:1;fill:#ffffff;fill-opacity:1;fill-rule:nonzero;stroke:none;stroke-width:225.582;stroke-linecap:round;stroke-linejoin:round;stroke-miterlimit:4;stroke-dasharray:none;stroke-opacity:1;paint-order:stroke fill markers"
       r="250"
       sodipodi:insensitive="true" />
    <path
       inkscape:connector-curvature="0"
       id="path830"
       d="m 423.7778,-93.9 c -5.1236,0.0206 -14.0995,3.88339 -15.6666,12.20983 0,0 -22.0908,64.46754 -22.1112,68.26514 v 32.19005 c 1.4985,3.90413 4.3357,6.92318 7.3335,9.43499 V 61.5 h 26.7776 V 28.20001 H 526.889 V 61.5 h 26.7776 V 28.20001 c 2.9977,-2.51181 5.8349,-5.53086 7.3334,-9.43499 v -32.19005 c -0.021,-3.7976 -22.1109,-68.26514 -22.1109,-68.26514 C 537.322,-90.01661 528.3458,-93.87942 523.2222,-93.9 Z m 11.1308,10.4893 H 473.5 512.0914 c 8.7555,0.006 18.106,5.06701 19.4556,11.65486 l 5.7665,34.41019 c 0.1329,0.85414 -0.4262,2.61941 -1.0553,3.60743 -1.2791,1.697 -3.5041,2.66689 -6.778,2.66412 H 417.5198 c -3.2738,0.003 -5.4989,-0.96712 -6.778,-2.66412 -0.6291,-0.98802 -1.1882,-2.75329 -1.0553,-3.60743 l 5.7665,-34.41019 c 1.3497,-6.58785 10.7002,-11.6491 19.4556,-11.65486 z"
       style="opacity:1;fill:#000000;fill-opacity:1;fill-rule:nonzero;stroke:none;stroke-width:79.8054;stroke-linecap:round;stroke-linejoin:round;stroke-miterlimit:4;stroke-dasharray:none;stroke-opacity:1;paint-order:stroke fill markers"
       sodipodi:nodetypes="ccccccccccccccccccccccccccccc"
       sodipodi:insensitive="true" />
    <path
       style="opacity:1;fill:#f00a0a;fill-opacity:1;fill-rule:nonzero;stroke:none;stroke-width:2.71882;stroke-linecap:round;stroke-linejoin:miter;stroke-miterlimit:10;stroke-dasharray:none;stroke-opacity:1;paint-order:stroke fill markers"
       d="m 168.6002,-194.00016 c -8.30996,0 -15.00008,6.69012 -15.00008,15.00013 V 27.50001 c 0,8.31001 6.69012,15.00013 15.00008,15.00013 h 1 V 61.5 h 13.1997 V 42.50014 h 3.8003 V 61.5 h 13.1997 V 42.50014 H 304.8002 V 61.5 h 13.1997 V 42.50014 h 3.8003 V 61.5 h 13.1997 V 42.50014 h 1.0005 c 8.31,0 14.9996,-6.69012 14.9996,-15.00013 v -206.50004 c 0,-8.31001 -6.6896,-15.00013 -14.9996,-15.00013 z"
       id="rect20642"
       inkscape:connector-curvature="0"
       sodipodi:insensitive="true" />
  </g>
</svg>
